<svg width="68" height="68" viewBox="0 0 68 68" fill="none" xmlns="http://www.w3.org/2000/svg">
<path d="M35.5303 20.3009C36.947 19.8419 38.0831 18.7624 38.6215 17.3826L50.615 29.3789C49.9305 29.6476 49.3139 30.0643 48.8094 30.5992C48.3049 31.1341 47.9249 31.7739 47.6966 32.4729L35.5303 20.3009ZM47.6995 35.5301L35.5275 47.6992C36.9441 48.1582 38.0831 49.2377 38.6215 50.6176L50.615 38.6212C49.9305 38.3526 49.3139 37.9359 48.8094 37.401C48.3049 36.8661 47.9249 36.2262 47.6966 35.5272M32.4703 47.6992L20.3011 35.5272C19.8421 36.9439 18.7655 38.0829 17.3828 38.6212L29.3791 50.6147C29.9175 49.2349 31.0536 48.1582 32.4731 47.6964M32.4703 20.3009L20.3011 32.4729C20.0729 31.7739 19.6929 31.1341 19.1884 30.5992C18.6839 30.0643 18.0673 29.6476 17.3828 29.3789L29.3791 17.3854C29.9175 18.7652 31.0536 19.8419 32.4731 20.3037" fill="#FCF118"/>
<path fill-rule="evenodd" clip-rule="evenodd" d="M34 12.75C33.2486 12.75 32.5279 13.0485 31.9965 13.5799C31.4652 14.1112 31.1667 14.8319 31.1667 15.5833C31.1667 16.3348 31.4652 17.0554 31.9965 17.5868C32.5279 18.1182 33.2486 18.4167 34 18.4167C34.7514 18.4167 35.4721 18.1182 36.0035 17.5868C36.5348 17.0554 36.8333 16.3348 36.8333 15.5833C36.8333 14.8319 36.5348 14.1112 36.0035 13.5799C35.4721 13.0485 34.7514 12.75 34 12.75ZM26.9167 15.5833C26.9167 13.7047 27.6629 11.903 28.9913 10.5747C30.3197 9.24628 32.1214 8.5 34 8.5C35.8786 8.5 37.6803 9.24628 39.0087 10.5747C40.3371 11.903 41.0833 13.7047 41.0833 15.5833C41.0833 17.462 40.3371 19.2636 39.0087 20.592C37.6803 21.9204 35.8786 22.6667 34 22.6667C32.1214 22.6667 30.3197 21.9204 28.9913 20.592C27.6629 19.2636 26.9167 17.462 26.9167 15.5833ZM34 49.5833C33.2486 49.5833 32.5279 49.8818 31.9965 50.4132C31.4652 50.9445 31.1667 51.6652 31.1667 52.4167C31.1667 53.1681 31.4652 53.8888 31.9965 54.4201C32.5279 54.9515 33.2486 55.25 34 55.25C34.7514 55.25 35.4721 54.9515 36.0035 54.4201C36.5348 53.8888 36.8333 53.1681 36.8333 52.4167C36.8333 51.6652 36.5348 50.9445 36.0035 50.4132C35.4721 49.8818 34.7514 49.5833 34 49.5833ZM26.9167 52.4167C26.9167 50.538 27.6629 48.7364 28.9913 47.408C30.3197 46.0796 32.1214 45.3333 34 45.3333C35.8786 45.3333 37.6803 46.0796 39.0087 47.408C40.3371 48.7364 41.0833 50.538 41.0833 52.4167C41.0833 54.2953 40.3371 56.097 39.0087 57.4253C37.6803 58.7537 35.8786 59.5 34 59.5C32.1214 59.5 30.3197 58.7537 28.9913 57.4253C27.6629 56.097 26.9167 54.2953 26.9167 52.4167ZM15.5833 31.1667C14.8319 31.1667 14.1112 31.4652 13.5799 31.9965C13.0485 32.5279 12.75 33.2486 12.75 34C12.75 34.7514 13.0485 35.4721 13.5799 36.0035C14.1112 36.5348 14.8319 36.8333 15.5833 36.8333C16.3348 36.8333 17.0554 36.5348 17.5868 36.0035C18.1182 35.4721 18.4167 34.7514 18.4167 34C18.4167 33.2486 18.1182 32.5279 17.5868 31.9965C17.0554 31.4652 16.3348 31.1667 15.5833 31.1667ZM8.5 34C8.5 32.1214 9.24628 30.3197 10.5747 28.9913C11.903 27.6629 13.7047 26.9167 15.5833 26.9167C17.462 26.9167 19.2636 27.6629 20.592 28.9913C21.9204 30.3197 22.6667 32.1214 22.6667 34C22.6667 35.8786 21.9204 37.6803 20.592 39.0087C19.2636 40.3371 17.462 41.0833 15.5833 41.0833C13.7047 41.0833 11.903 40.3371 10.5747 39.0087C9.24628 37.6803 8.5 35.8786 8.5 34ZM52.4167 31.1667C51.6652 31.1667 50.9445 31.4652 50.4132 31.9965C49.8818 32.5279 49.5833 33.2486 49.5833 34C49.5833 34.7514 49.8818 35.4721 50.4132 36.0035C50.9445 36.5348 51.6652 36.8333 52.4167 36.8333C53.1681 36.8333 53.8888 36.5348 54.4201 36.0035C54.9515 35.4721 55.25 34.7514 55.25 34C55.25 33.2486 54.9515 32.5279 54.4201 31.9965C53.8888 31.4652 53.1681 31.1667 52.4167 31.1667ZM45.3333 34C45.3333 32.1214 46.0796 30.3197 47.408 28.9913C48.7364 27.6629 50.538 26.9167 52.4167 26.9167C54.2953 26.9167 56.097 27.6629 57.4253 28.9913C58.7537 30.3197 59.5 32.1214 59.5 34C59.5 35.8786 58.7537 37.6803 57.4253 39.0087C56.097 40.3371 54.2953 41.0833 52.4167 41.0833C50.538 41.0833 48.7364 40.3371 47.408 39.0087C46.0796 37.6803 45.3333 35.8786 45.3333 34Z" fill="#FCF118"/>
</svg>
