<svg width="559" height="651" viewBox="0 0 559 651" fill="none" xmlns="http://www.w3.org/2000/svg">
<path fill-rule="evenodd" clip-rule="evenodd" d="M0 555.995V0H559V555.995L353.131 650.664V555.995H0ZM240.498 270.734L206.216 465.2H300.632L338.881 248.277C346.636 204.191 330.117 182.815 287.367 182.815C250.175 182.815 220.126 202.101 194.687 241.672L190.077 239.306C205.996 211.865 214.267 190.488 218.565 165.954L231.363 93.3215H136.93L71.3936 465.236H165.826L194.255 303.976C200.521 268.368 212.478 248.577 228.841 248.577C239.106 248.577 243.104 255.963 240.498 270.734ZM421.501 465.224H327.068L365.112 249.31C371.535 212.874 403.181 186.297 440.169 186.297H470.65L421.501 465.224ZM474.383 165.149H379.951L392.592 93.3215H487.061L474.383 165.149Z" fill="#F87311"/>
</svg>
