<svg width="134" height="156" viewBox="0 0 134 156" fill="none" xmlns="http://www.w3.org/2000/svg">
<mask id="mask0_2017_347" style="mask-type:luminance" maskUnits="userSpaceOnUse" x="0" y="0" width="134" height="156">
<path d="M134 0.166016H0V156H134V0.166016Z" fill="white"/>
</mask>
<g mask="url(#mask0_2017_347)">
<path d="M0.0976562 0.166016V133.213H84.6V155.866L133.863 133.213V0.166016H0.0976562Z" fill="#F87311"/>
<path fill-rule="evenodd" clip-rule="evenodd" d="M49.444 111.486L57.6475 64.9515C58.2709 61.4166 57.314 59.6493 54.8579 59.6493C50.9424 59.6493 48.0813 64.3851 46.5816 72.9059L39.7788 111.494H17.1816L32.8641 22.4976H55.4612L52.3988 39.878C51.3705 45.7489 49.3913 50.8644 45.582 57.4308L46.6848 57.9968C52.7726 48.5278 59.9628 43.9127 68.8629 43.9127C79.0927 43.9127 83.0455 49.0278 81.19 59.5774L72.0373 111.486H49.444ZM78.3632 111.492H100.96L112.722 44.7462H105.427C96.5765 44.7462 89.004 51.1059 87.467 59.8249L78.3632 111.492ZM91.0174 39.6854H113.615L116.649 22.4976H94.0425L91.0174 39.6854Z" fill="#861083"/>
</g>
</svg>
