<svg width="60" height="60" viewBox="0 0 60 60" fill="none" xmlns="http://www.w3.org/2000/svg">
<path d="M23.0391 14C18.0546 14 14 18.0584 14 23.0442V35.9609C14 40.9454 18.0584 45 23.0442 45H35.9609C40.9454 45 45 40.9416 45 35.9558V23.0391C45 18.0546 40.9416 14 35.9558 14H23.0391ZM38.5417 19.1667C39.2547 19.1667 39.8333 19.7453 39.8333 20.4583C39.8333 21.1713 39.2547 21.75 38.5417 21.75C37.8287 21.75 37.25 21.1713 37.25 20.4583C37.25 19.7453 37.8287 19.1667 38.5417 19.1667ZM29.5 21.75C33.7741 21.75 37.25 25.2259 37.25 29.5C37.25 33.7741 33.7741 37.25 29.5 37.25C25.2259 37.25 21.75 33.7741 21.75 29.5C21.75 25.2259 25.2259 21.75 29.5 21.75ZM29.5 24.3333C28.1297 24.3333 26.8156 24.8777 25.8466 25.8466C24.8777 26.8156 24.3333 28.1297 24.3333 29.5C24.3333 30.8703 24.8777 32.1844 25.8466 33.1534C26.8156 34.1223 28.1297 34.6667 29.5 34.6667C30.8703 34.6667 32.1844 34.1223 33.1534 33.1534C34.1223 32.1844 34.6667 30.8703 34.6667 29.5C34.6667 28.1297 34.1223 26.8156 33.1534 25.8466C32.1844 24.8777 30.8703 24.3333 29.5 24.3333Z" fill="white"/>
</svg>
