<svg width="36" height="36" viewBox="0 0 36 36" fill="none" xmlns="http://www.w3.org/2000/svg">
<path d="M33 18C33 16.0302 32.612 14.0796 31.8582 12.2597C31.1044 10.4399 29.9995 8.78628 28.6066 7.3934C27.2137 6.00052 25.5601 4.89563 23.7403 4.14181C21.9204 3.38799 19.9698 3 18 3V6C20.3733 5.99995 22.6933 6.70362 24.6666 8.02205C26.64 9.34048 28.1781 11.2144 29.0865 13.407C29.6897 14.8632 30.0001 16.4239 30 18H33ZM3 15V7.5C3 7.10218 3.15804 6.72064 3.43934 6.43934C3.72064 6.15804 4.10218 6 4.5 6H12C12.3978 6 12.7794 6.15804 13.0607 6.43934C13.342 6.72064 13.5 7.10218 13.5 7.5V13.5C13.5 13.8978 13.342 14.2794 13.0607 14.5607C12.7794 14.842 12.3978 15 12 15H9C9 18.1826 10.2643 21.2348 12.5147 23.4853C14.7652 25.7357 17.8174 27 21 27V24C21 23.6022 21.158 23.2206 21.4393 22.9393C21.7206 22.658 22.1022 22.5 22.5 22.5H28.5C28.8978 22.5 29.2794 22.658 29.5607 22.9393C29.842 23.2206 30 23.6022 30 24V31.5C30 31.8978 29.842 32.2794 29.5607 32.5607C29.2794 32.842 28.8978 33 28.5 33H21C11.0595 33 3 24.9405 3 15Z" fill="#F87311"/>
<path d="M26.3145 14.556C26.7669 15.6479 26.9998 16.8181 27 18H24.3C24.3 16.3291 23.6363 14.7267 22.4548 13.5452C21.2733 12.3637 19.6709 11.7 18 11.7V9C19.78 9.00009 21.52 9.528 22.9999 10.517C24.4799 11.5059 25.6334 12.9115 26.3145 14.556Z" fill="#F87311"/>
</svg>
