<svg width="60" height="60" viewBox="0 0 60 60" fill="none" xmlns="http://www.w3.org/2000/svg">
<path d="M35.2889 24.2059C37.5513 25.8164 40.3216 26.7639 43.3141 26.7639V22.2486C41.6437 21.8941 40.165 21.0246 39.0533 19.8152C37.1503 18.6322 35.7791 16.6807 35.3771 14.3965H31.182V37.3086C31.1725 39.9797 28.9964 42.1424 26.3129 42.1424C24.7316 42.1424 23.3267 41.3916 22.437 40.2283C20.8483 39.4296 19.7587 37.7896 19.7587 35.8958C19.7587 33.2173 21.9383 31.0456 24.6276 31.0456C25.1428 31.0456 25.6395 31.1255 26.1053 31.2728V26.708C20.3301 26.8269 15.6855 31.5275 15.6855 37.3087C15.6855 40.1946 16.8421 42.8108 18.7193 44.7224C20.4128 45.8551 22.4514 46.5159 24.6449 46.5159C30.5234 46.5159 35.289 41.7685 35.289 35.9124V24.206L35.2889 24.2059Z" fill="white"/>
<path d="M43.3138 22.2484V21.0278C41.8075 21.0301 40.3309 20.6099 39.053 19.8152C40.1842 21.0489 41.6738 21.8997 43.3138 22.2487V22.2484ZM35.3767 14.3964C35.3384 14.1781 35.3089 13.9584 35.2885 13.7378V13H29.4961V35.9123C29.4869 38.5832 27.3109 40.7459 24.6272 40.7459C23.8664 40.7471 23.116 40.5698 22.4366 40.2286C23.3263 41.3916 24.7312 42.1423 26.3125 42.1423C28.9959 42.1423 31.1722 39.9798 31.1816 37.3087V14.3965H35.3767V14.3964ZM26.1053 26.7079V25.4082C25.6212 25.3423 25.1333 25.3093 24.6447 25.3095C18.7656 25.3095 14 30.0567 14 35.9123C14 39.5836 15.873 42.819 18.7191 44.7222C16.8419 42.8107 15.6854 40.1944 15.6854 37.3086C15.6854 31.5276 20.3298 26.8268 26.1053 26.7079Z" fill="white"/>
</svg>
