<svg width="60" height="60" viewBox="0 0 60 60" fill="none" xmlns="http://www.w3.org/2000/svg">
<path fill-rule="evenodd" clip-rule="evenodd" d="M44.3132 17.7586C45.8751 18.1767 47.1026 19.4041 47.5206 20.966C48.2762 23.7941 48.2792 29.6983 48.2792 29.6983C48.2792 29.6983 48.2792 35.6025 47.5206 38.4307C47.1026 39.9926 45.8751 41.22 44.3132 41.6381C41.4851 42.3967 30.1396 42.3967 30.1396 42.3967C30.1396 42.3967 18.7941 42.3967 15.966 41.6381C14.4041 41.22 13.1767 39.9926 12.7586 38.4307C12 35.6025 12 29.6983 12 29.6983C12 29.6983 12 23.7941 12.7586 20.966C13.1767 19.4041 14.4041 18.1767 15.966 17.7586C18.7941 17 30.1396 17 30.1396 17C30.1396 17 41.4851 17 44.3132 17.7586ZM35.933 29.6986L26.5078 35.1399V24.2573L35.933 29.6986Z" fill="white"/>
</svg>
