<svg width="52" height="52" viewBox="0 0 52 52" fill="none" xmlns="http://www.w3.org/2000/svg">
<path d="M42.6156 9.96937C42.7191 9.86228 42.8528 9.78933 42.9989 9.76029C43.145 9.73125 43.2964 9.7475 43.433 9.80687C43.5662 9.85172 43.6812 9.9385 43.7609 10.0542C43.8405 10.1699 43.8806 10.3084 43.875 10.4487V11.0386L38.7627 16.1509C38.5362 16.3772 38.3566 16.646 38.234 16.9418C38.1114 17.2377 38.0483 17.5548 38.0483 17.875C38.0483 18.1952 38.1114 18.5123 38.234 18.8082C38.3566 19.104 38.5362 19.3728 38.7627 19.5991L43.875 24.7114V32.6186L46.8488 31.1318C46.9387 31.0863 47.0308 31.0472 47.125 31.0147V10.4487C47.125 6.78925 42.718 5.25525 40.3097 7.67812L33.4068 14.625H18.8012L11.7049 7.66837C9.29988 5.27312 4.875 6.77462 4.875 10.4471V31.0147C4.96925 31.0472 5.06133 31.0863 5.15125 31.1318L8.125 32.6186V24.7114L13.2372 19.5991C13.4638 19.3728 13.6434 19.104 13.766 18.8082C13.8886 18.5123 13.9517 18.1952 13.9517 17.875C13.9517 17.5548 13.8886 17.2377 13.766 16.9418C13.6434 16.646 13.4638 16.3772 13.2372 16.1509L8.125 11.0386V10.4487C8.1202 10.3078 8.16135 10.1692 8.24225 10.0537C8.32315 9.93818 8.43941 9.85213 8.5735 9.8085C8.71375 9.74861 8.86873 9.73208 9.01846 9.76104C9.16819 9.79001 9.30582 9.86313 9.41363 9.971L9.425 9.984L17.4736 17.875H34.7587L42.6156 9.96937ZM43.875 22.4136L39.91 18.4486C39.7577 18.2963 39.6721 18.0896 39.6721 17.8742C39.6721 17.6587 39.7577 17.4521 39.91 17.2997L43.875 13.338V22.4136ZM12.09 18.4486L8.125 22.4152V13.3364L12.09 17.3014C12.2423 17.4537 12.3279 17.6604 12.3279 17.8758C12.3279 18.0913 12.2423 18.2979 12.09 18.4502M43.875 38.0689V38.3061L47.125 39.9311V36.4439L43.875 38.0689ZM39.1333 47.125C41.1287 47.125 42.9601 45.6625 43.6182 43.628L46.54 45.0889C45.3651 48.1049 42.5392 50.375 39.1333 50.375H12.8668C9.44775 50.375 6.56663 48.165 5.41288 45.1116L8.34438 43.6475C8.95863 45.682 10.7933 47.125 12.8668 47.125H39.1333ZM8.125 38.3061L4.875 39.9311V36.4439L8.125 38.0689V38.3061Z" fill="#FCF118"/>
<path d="M24.3051 32.4999H27.6948C27.8556 32.4999 28.0128 32.5477 28.1464 32.6371C28.28 32.7264 28.3841 32.8535 28.4456 33.002C28.507 33.1506 28.5229 33.3141 28.4914 33.4717C28.4599 33.6294 28.3823 33.7741 28.2685 33.8877L26.5752 35.5809C26.4997 35.6566 26.4101 35.7166 26.3114 35.7576C26.2127 35.7985 26.1068 35.8196 26 35.8196C25.8931 35.8196 25.7873 35.7985 25.6886 35.7576C25.5899 35.7166 25.5002 35.6566 25.4247 35.5809L23.7315 33.8877C23.6176 33.7741 23.5401 33.6294 23.5085 33.4717C23.477 33.3141 23.493 33.1506 23.5544 33.002C23.6158 32.8535 23.7199 32.7264 23.8535 32.6371C23.9872 32.5477 24.1443 32.4999 24.3051 32.4999ZM26 37.5472C25.1257 38.423 23.6323 38.9999 21.9375 38.9999C20.2605 38.9999 18.7817 38.436 17.9042 37.5764C18.0992 38.7529 19.4122 44.6874 26 44.6874C32.5877 44.6874 33.8991 38.7529 34.0957 37.5764C33.2182 38.436 31.7395 38.9999 30.0625 38.9999C28.366 38.9999 26.8726 38.423 26 37.5472ZM14.5502 22.8962C15.9071 22.7272 17.3647 23.8387 17.3647 23.8387C17.3647 23.8387 17.8782 22.1649 19.0872 21.5848C22.0658 20.1548 24.2515 22.3323 24.3685 24.3717C24.5813 28.0247 20.345 32.4999 20.345 32.4999C20.345 32.4999 14.0708 31.0699 11.9681 27.9645C10.7932 26.229 11.2222 23.3057 14.5502 22.8945M37.44 22.8962C36.0847 22.7272 34.6287 23.8387 34.6287 23.8387C34.6287 23.8387 34.1168 22.1649 32.9095 21.5848C29.9325 20.1548 27.7485 22.3323 27.6331 24.3717C27.4186 28.0247 31.6517 32.4999 31.6517 32.4999C31.6517 32.4999 37.921 31.0699 40.0205 27.9645C41.2132 26.229 40.7826 23.3057 37.4416 22.8945M3.3361 32.9484C3.43264 32.7562 3.60147 32.6101 3.80557 32.5422C4.00966 32.4742 4.23236 32.49 4.42485 32.586L10.9248 35.836C11.025 35.8807 11.115 35.9452 11.1896 36.0256C11.2641 36.106 11.3216 36.2007 11.3586 36.3039C11.3956 36.4071 11.4113 36.5167 11.4048 36.6262C11.3983 36.7356 11.3697 36.8426 11.3208 36.9407C11.2718 37.0388 11.2035 37.126 11.12 37.197C11.0365 37.268 10.9394 37.3214 10.8347 37.3539C10.73 37.3865 10.6198 37.3975 10.5107 37.3863C10.4017 37.3751 10.296 37.3419 10.2001 37.2888L3.7001 34.0388C3.50759 33.9425 3.36115 33.7738 3.2929 33.5697C3.22466 33.3656 3.24019 33.1427 3.3361 32.95M3.3361 43.4264C3.43264 43.6186 3.60147 43.7647 3.80557 43.8326C4.00966 43.9006 4.23236 43.8848 4.42485 43.7888L10.9248 40.5388C11.025 40.4941 11.115 40.4296 11.1896 40.3492C11.2641 40.2688 11.3216 40.1742 11.3586 40.071C11.3956 39.9677 11.4113 39.8581 11.4048 39.7487C11.3983 39.6392 11.3697 39.5322 11.3208 39.4341C11.2718 39.336 11.2035 39.2488 11.12 39.1778C11.0365 39.1068 10.9394 39.0534 10.8347 39.0209C10.73 38.9884 10.6198 38.9774 10.5107 38.9886C10.4017 38.9998 10.296 39.0329 10.2001 39.086L3.7001 42.336C3.50759 42.4323 3.36115 42.601 3.2929 42.8051C3.22466 43.0092 3.24019 43.2321 3.3361 43.4248M47.5751 32.586C47.6709 32.5344 47.776 32.5025 47.8844 32.4923C47.9927 32.4821 48.102 32.4937 48.2057 32.5265C48.3095 32.5593 48.4056 32.6126 48.4883 32.6833C48.5711 32.7539 48.6388 32.8405 48.6875 32.9378C48.7361 33.0351 48.7647 33.1413 48.7716 33.2498C48.7785 33.3584 48.7635 33.4673 48.7275 33.57C48.6915 33.6727 48.6352 33.7671 48.562 33.8476C48.4889 33.9281 48.4003 33.9932 48.3015 34.0388L41.8015 37.2888C41.706 37.3376 41.6018 37.367 41.4949 37.3753C41.388 37.3836 41.2805 37.3707 41.1786 37.3373C41.0767 37.3038 40.9824 37.2506 40.9012 37.1805C40.82 37.1105 40.7535 37.0251 40.7054 36.9292C40.6574 36.8334 40.6288 36.7289 40.6213 36.622C40.6138 36.515 40.6276 36.4076 40.6618 36.306C40.696 36.2044 40.75 36.1105 40.8207 36.0299C40.8913 35.9492 40.9772 35.8833 41.0735 35.836L47.5751 32.586ZM48.6638 43.4264C48.5673 43.6186 48.3985 43.7647 48.1944 43.8326C47.9903 43.9006 47.7676 43.8848 47.5751 43.7888L41.0751 40.5388C40.9763 40.4932 40.8877 40.4281 40.8145 40.3476C40.7413 40.2671 40.6851 40.1727 40.6491 40.07C40.6131 39.9673 40.5981 39.8584 40.6049 39.7498C40.6118 39.6413 40.6404 39.5351 40.6891 39.4378C40.7378 39.3405 40.8055 39.2539 40.8882 39.1833C40.971 39.1126 41.0671 39.0593 41.1708 39.0265C41.2746 38.9937 41.3839 38.9821 41.4922 38.9923C41.6005 39.0025 41.7057 39.0344 41.8015 39.086L48.3015 42.336C48.4937 42.4326 48.6398 42.6014 48.7077 42.8055C48.7756 43.0096 48.7599 43.2323 48.6638 43.4248" fill="#FCF118"/>
</svg>
