<svg width="78" height="78" viewBox="0 0 78 78" fill="none" xmlns="http://www.w3.org/2000/svg">
<g clip-path="url(#clip0_462_1415)">
<path d="M16.7147 39V24.3472C16.7582 21.4669 17.3696 18.6236 18.5139 15.98C19.6582 13.3365 21.3129 10.9447 23.3831 8.94173C25.4534 6.93877 27.8985 5.364 30.5784 4.30764C33.2583 3.25128 36.1203 2.73411 39.0004 2.78575C41.8805 2.73411 44.7425 3.25128 47.4224 4.30764C50.1023 5.364 52.5475 6.93877 54.6177 8.94173C56.6879 10.9447 58.3426 13.3365 59.4869 15.98C60.6312 18.6236 61.2426 21.4669 61.2861 24.3472V39M50.1433 68.25C53.0985 68.25 55.9328 67.0761 58.0225 64.9864C60.1122 62.8967 61.2861 60.0624 61.2861 57.1072V44.5715M50.1433 68.25C50.1433 70.0971 49.4095 71.8685 48.1035 73.1745C46.7974 74.4806 45.026 75.2143 43.179 75.2143H34.8218C32.9748 75.2143 31.2034 74.4806 29.8974 73.1745C28.5913 71.8685 27.8576 70.0971 27.8576 68.25C27.8576 66.403 28.5913 64.6316 29.8974 63.3255C31.2034 62.0195 32.9748 61.2857 34.8218 61.2857H43.179C45.026 61.2857 46.7974 62.0195 48.1035 63.3255C49.4095 64.6316 50.1433 66.403 50.1433 68.25ZM8.35756 30.6429H13.929C14.6678 30.6429 15.3764 30.9364 15.8988 31.4588C16.4212 31.9812 16.7147 32.6898 16.7147 33.4286V50.1429C16.7147 50.8817 16.4212 51.5903 15.8988 52.1127C15.3764 52.6351 14.6678 52.9286 13.929 52.9286H8.35756C6.87993 52.9286 5.46281 52.3416 4.41797 51.2968C3.37312 50.2519 2.78613 48.8348 2.78613 47.3572V36.2143C2.78613 34.7367 3.37312 33.3196 4.41797 32.2747C5.46281 31.2299 6.87993 30.6429 8.35756 30.6429ZM69.6433 52.9286H64.0718C63.333 52.9286 62.6245 52.6351 62.102 52.1127C61.5796 51.5903 61.2861 50.8817 61.2861 50.1429V33.4286C61.2861 32.6898 61.5796 31.9812 62.102 31.4588C62.6245 30.9364 63.333 30.6429 64.0718 30.6429H69.6433C71.1209 30.6429 72.538 31.2299 73.5829 32.2747C74.6277 33.3196 75.2147 34.7367 75.2147 36.2143V47.3572C75.2147 48.8348 74.6277 50.2519 73.5829 51.2968C72.538 52.3416 71.1209 52.9286 69.6433 52.9286Z" stroke="#FCF118" stroke-width="5" stroke-linecap="round" stroke-linejoin="round"/>
</g>
<defs>
<clipPath id="clip0_462_1415">
<rect width="78" height="78" fill="white"/>
</clipPath>
</defs>
</svg>
