<svg width="83" height="76" viewBox="0 0 83 76" fill="none" xmlns="http://www.w3.org/2000/svg">
<circle cx="41.5003" cy="12.0882" r="8.82353" stroke="#FCF118" stroke-width="5"/>
<circle cx="66.4114" cy="14.3528" r="6.55882" stroke="#FCF118" stroke-width="5"/>
<circle cx="16.5881" cy="14.3528" r="6.55882" stroke="#FCF118" stroke-width="5"/>
<path d="M66.4118 27.9412H75.4706C77.9721 27.9412 80 29.969 80 32.4706V50.5882C80 58.0928 73.9163 64.1765 66.4118 64.1765M16.5882 27.9412H7.52941C5.02789 27.9412 3 29.969 3 32.4706V50.5882C3 58.0928 9.08366 64.1765 16.5882 64.1765M41.5 73.2353C32.7447 73.2353 25.6471 66.1377 25.6471 57.3823V32.4706C25.6471 29.9691 27.6749 27.9412 30.1765 27.9412H52.8235C55.3251 27.9412 57.3529 29.969 57.3529 32.4706V57.3823C57.3529 66.1377 50.2553 73.2353 41.5 73.2353Z" stroke="#FCF118" stroke-width="5" stroke-linecap="round" stroke-linejoin="round"/>
</svg>
