<svg width="98" height="98" viewBox="0 0 98 98" fill="none" xmlns="http://www.w3.org/2000/svg">
<path d="M24.8678 61.2459C23.278 57.6526 22.4574 53.7664 22.4587 49.8371C22.4587 34.7084 34.3412 22.4543 49.0003 22.4543C63.6595 22.4543 75.542 34.7124 75.542 49.8371C75.5433 53.7664 74.7226 57.6526 73.1328 61.2459M49.0003 8.1626V12.2459M89.8337 48.9959H85.7503M12.2503 48.9959H8.16699M77.8695 20.1227L74.9826 23.0096M23.0181 23.0137L20.1312 20.1268M59.2781 78.8328C63.4022 77.4976 65.0601 73.7205 65.5256 69.923C65.6644 68.7879 64.7293 67.8446 63.586 67.8446H34.6147C34.3355 67.8401 34.0586 67.895 33.8022 68.0056C33.5458 68.1162 33.3158 68.28 33.1274 68.4861C32.939 68.6923 32.7966 68.936 32.7094 69.2013C32.6223 69.4666 32.5926 69.7474 32.6221 70.0251C33.0794 73.8144 34.2309 76.5829 38.6001 78.8288M59.2781 78.8328L38.6001 78.8288M59.2781 78.8328C58.784 86.7749 56.4892 89.9191 49.0289 89.8293C41.0501 89.9763 39.2126 86.0848 38.6001 78.8288" stroke="#FCF118" stroke-width="5" stroke-linecap="round" stroke-linejoin="round"/>
</svg>
