<svg width="16" height="16" viewBox="0 0 16 16" fill="none" xmlns="http://www.w3.org/2000/svg">
<path d="M8.00072 0C5.82808 0 5.55536 0.00951991 4.70208 0.0483195C3.8504 0.0873591 3.26904 0.222158 2.7604 0.419996C2.23416 0.624314 1.78784 0.897671 1.3432 1.34247C0.89816 1.78718 0.6248 2.2335 0.41984 2.75949C0.22144 3.26829 0.0864799 3.84988 0.0481599 4.70115C0.00999994 5.5545 0 5.8273 0 8C0 10.1727 0.00960001 10.4445 0.04832 11.2978C0.08752 12.1495 0.22232 12.7308 0.42 13.2395C0.62448 13.7657 0.89784 14.212 1.34264 14.6567C1.7872 15.1017 2.23352 15.3757 2.75936 15.58C3.2684 15.7778 3.84984 15.9126 4.70136 15.9517C5.55472 15.9905 5.8272 16 7.99976 16C10.1726 16 10.4445 15.9905 11.2978 15.9517C12.1494 15.9126 12.7314 15.7778 13.2405 15.58C13.7665 15.3757 14.2122 15.1017 14.6566 14.6567C15.1017 14.212 15.375 13.7657 15.58 13.2397C15.7766 12.7308 15.9117 12.1493 15.9517 11.298C15.99 10.4447 16 10.1727 16 8C16 5.8273 15.99 5.55466 15.9517 4.70131C15.9117 3.84964 15.7766 3.26837 15.58 2.75973C15.375 2.2335 15.1017 1.78718 14.6566 1.34247C14.2117 0.897511 13.7666 0.624154 13.24 0.420076C12.73 0.222158 12.1483 0.0872791 11.2966 0.0483195C10.4433 0.00951991 10.1716 0 7.99824 0H8.00072ZM7.28304 1.44167C7.49608 1.44135 7.73376 1.44167 8.00072 1.44167C10.1368 1.44167 10.3899 1.44935 11.2334 1.48767C12.0134 1.52334 12.4368 1.65366 12.7188 1.76318C13.0922 1.90814 13.3583 2.0815 13.6382 2.36158C13.9182 2.64157 14.0914 2.90821 14.2368 3.28157C14.3463 3.56316 14.4768 3.98652 14.5123 4.76651C14.5506 5.60986 14.559 5.86314 14.559 7.99816C14.559 10.1332 14.5506 10.3865 14.5123 11.2298C14.4766 12.0098 14.3463 12.4332 14.2368 12.7148C14.0918 13.0882 13.9182 13.354 13.6382 13.6339C13.3582 13.9139 13.0923 14.0871 12.7188 14.2322C12.4371 14.3422 12.0134 14.4722 11.2334 14.5079C10.3901 14.5462 10.1368 14.5545 8.00072 14.5545C5.86456 14.5545 5.61136 14.5462 4.76808 14.5079C3.98808 14.4719 3.56472 14.3415 3.28248 14.232C2.9092 14.087 2.64248 13.9137 2.36248 13.6337C2.08248 13.3537 1.9092 13.0877 1.76384 12.7142C1.65432 12.4325 1.52384 12.0092 1.48832 11.2292C1.45 10.3858 1.44232 10.1325 1.44232 7.99616C1.44232 5.85986 1.45 5.60786 1.48832 4.76451C1.524 3.98452 1.65432 3.56116 1.76384 3.27917C1.90888 2.90581 2.08248 2.63917 2.36256 2.35918C2.64256 2.07918 2.9092 1.90582 3.28256 1.76054C3.56456 1.65054 3.98808 1.52054 4.76808 1.4847C5.50608 1.45135 5.79208 1.44135 7.28304 1.43967V1.44167ZM12.2711 2.76997C11.7411 2.76997 11.3111 3.19957 11.3111 3.72964C11.3111 4.25964 11.7411 4.68963 12.2711 4.68963C12.8011 4.68963 13.2311 4.25964 13.2311 3.72964C13.2311 3.19965 12.8011 2.76965 12.2711 2.76965V2.76997ZM8.00072 3.89164C5.73192 3.89164 3.8924 5.73114 3.8924 8C3.8924 10.2689 5.73192 12.1075 8.00072 12.1075C10.2696 12.1075 12.1085 10.2689 12.1085 8C12.1085 5.73122 10.2694 3.89164 8.00056 3.89164H8.00072ZM8.00072 5.33331C9.47344 5.33331 10.6674 6.52714 10.6674 8C10.6674 9.47271 9.47344 10.6667 8.00072 10.6667C6.52792 10.6667 5.33408 9.47271 5.33408 8C5.33408 6.52714 6.52792 5.33331 8.00072 5.33331Z" fill="white"/>
</svg>
