<svg width="200" height="60" viewBox="0 0 200 60" fill="none" xmlns="http://www.w3.org/2000/svg">
<path d="M0 0.802734V51.5216L33.0441 51.5433V59.9977L52.1733 51.5216V0.802734H0ZM19.251 43.089L22.4587 25.4018C22.7024 24.0576 22.3294 23.388 21.3696 23.388C19.8379 23.388 18.7214 25.1867 18.1346 28.4262L15.4764 43.089H6.63915L12.771 9.27159H21.6058L20.4098 15.8765C20.007 18.1079 19.2336 20.0517 17.7442 22.5466L18.1744 22.7618C20.554 19.162 23.3663 17.4092 26.845 17.4092C30.8434 17.4092 32.3901 19.353 31.664 23.3614L28.0858 43.0866H19.251V43.089ZM39.3923 43.089H30.5575L34.1158 23.4556C34.7175 20.1411 37.6765 17.7259 41.1379 17.7259H43.99L39.3923 43.089ZM44.3406 15.8015H35.5058L36.6894 9.27159H45.5266L44.3406 15.8015Z" fill="white"/>
<path d="M84.4985 11.7762V22.8996C84.4985 28.842 79.5428 33.6603 73.4308 33.6603H70.5613V51.5239H60.8711V0.797852H73.3935C80.8482 0.797852 84.501 4.42183 84.501 11.7786L84.4985 11.7762ZM74.9575 24.0237V10.5432C74.9575 8.80494 74.2513 8.00713 72.7594 8.00713H70.5613V26.451H72.7594C74.2513 26.451 74.9575 25.6895 74.9575 24.0213V24.0237Z" fill="white"/>
<path d="M111.453 0.797852V42.2524C111.453 49.1378 107.355 52.3266 99.4152 52.3266C91.4755 52.3266 87.3379 49.1378 87.3379 42.2524V0.797852H97.0281V42.2524C97.0281 44.2083 97.8486 45.2237 99.4127 45.2237C100.977 45.2237 101.76 44.2083 101.76 42.2524V0.797852H111.448H111.453Z" fill="white"/>
<path d="M114.927 0.797852H128.755C135.538 0.797852 138.407 3.84161 138.407 10.6907V16.6694C138.407 21.5239 136.396 23.591 133.228 24.6789V25.4767C136.846 26.7097 139.081 29.2095 139.081 34.8618V41.3483C139.081 48.3786 135.988 51.5312 129.242 51.5312H114.929V0.797852H114.927ZM126.666 21.8503C128.382 21.8503 129.05 21.0888 129.05 18.8428V11.1597C129.05 8.87747 128.379 8.0434 126.666 8.0434H124.617V21.8503H126.666ZM126.778 44.2808C128.493 44.2808 129.162 43.4105 129.162 41.0195V31.7431C129.162 29.4247 128.491 28.5906 126.778 28.5906H124.617V44.2808H126.778Z" fill="white"/>
<path d="M141.792 0.797852H151.482V43.8843H159.571V51.5312H141.792V0.797852Z" fill="white"/>
<path d="M172.173 0.797852V51.5288H162.482V0.797852H172.173Z" fill="white"/>
<path d="M175.773 39.8227V12.5377C175.773 4.05915 179.613 0 187.813 0C196.014 0 199.963 3.73277 199.963 12.5014V19.423L190.496 20.7648V12.6827C190.496 8.36973 189.641 7.10291 187.963 7.10291C186.284 7.10291 185.503 8.37215 185.503 11.017V41.1669C185.503 43.7755 186.324 45.0447 187.963 45.0447C189.601 45.0447 190.496 43.7392 190.496 39.1748V29.9347L200 31.5279V39.7526C200 48.63 195.713 52.3628 187.813 52.3628C179.914 52.3628 175.773 48.2674 175.773 39.8251V39.8227Z" fill="white"/>
</svg>
