<svg width="60" height="60" viewBox="0 0 60 60" fill="none" xmlns="http://www.w3.org/2000/svg">
<path d="M11.2498 15C11.2498 14.5027 11.4474 14.0258 11.799 13.6742C12.1506 13.3225 12.6275 13.125 13.1248 13.125H16.8748V9.375C16.8748 8.87772 17.0724 8.40081 17.424 8.04918C17.7756 7.69754 18.2525 7.5 18.7498 7.5C19.2471 7.5 19.724 7.69754 20.0756 8.04918C20.4273 8.40081 20.6248 8.87772 20.6248 9.375V13.125H24.3748C24.8721 13.125 25.349 13.3225 25.7006 13.6742C26.0523 14.0258 26.2498 14.5027 26.2498 15C26.2498 15.4973 26.0523 15.9742 25.7006 16.3258C25.349 16.6775 24.8721 16.875 24.3748 16.875H20.6248V20.625C20.6248 21.1223 20.4273 21.5992 20.0756 21.9508C19.724 22.3025 19.2471 22.5 18.7498 22.5C18.2525 22.5 17.7756 22.3025 17.424 21.9508C17.0724 21.5992 16.8748 21.1223 16.8748 20.625V16.875H13.1248C12.6275 16.875 12.1506 16.6775 11.799 16.3258C11.4474 15.9742 11.2498 15.4973 11.2498 15ZM43.1248 45H41.2498V43.125C41.2498 42.6277 41.0523 42.1508 40.7006 41.7992C40.349 41.4475 39.8721 41.25 39.3748 41.25C38.8775 41.25 38.4006 41.4475 38.049 41.7992C37.6974 42.1508 37.4998 42.6277 37.4998 43.125V45H35.6248C35.1275 45 34.6506 45.1975 34.299 45.5492C33.9474 45.9008 33.7498 46.3777 33.7498 46.875C33.7498 47.3723 33.9474 47.8492 34.299 48.2008C34.6506 48.5525 35.1275 48.75 35.6248 48.75H37.4998V50.625C37.4998 51.1223 37.6974 51.5992 38.049 51.9508C38.4006 52.3025 38.8775 52.5 39.3748 52.5C39.8721 52.5 40.349 52.3025 40.7006 51.9508C41.0523 51.5992 41.2498 51.1223 41.2498 50.625V48.75H43.1248C43.6221 48.75 44.099 48.5525 44.4506 48.2008C44.8023 47.8492 44.9998 47.3723 44.9998 46.875C44.9998 46.3777 44.8023 45.9008 44.4506 45.5492C44.099 45.1975 43.6221 45 43.1248 45ZM56.2498 33.75H52.4998V30C52.4998 29.5027 52.3023 29.0258 51.9506 28.6742C51.599 28.3225 51.1221 28.125 50.6248 28.125C50.1275 28.125 49.6506 28.3225 49.299 28.6742C48.9474 29.0258 48.7498 29.5027 48.7498 30V33.75H44.9998C44.5025 33.75 44.0256 33.9475 43.674 34.2992C43.3224 34.6508 43.1248 35.1277 43.1248 35.625C43.1248 36.1223 43.3224 36.5992 43.674 36.9508C44.0256 37.3025 44.5025 37.5 44.9998 37.5H48.7498V41.25C48.7498 41.7473 48.9474 42.2242 49.299 42.5758C49.6506 42.9275 50.1275 43.125 50.6248 43.125C51.1221 43.125 51.599 42.9275 51.9506 42.5758C52.3023 42.2242 52.4998 41.7473 52.4998 41.25V37.5H56.2498C56.7471 37.5 57.224 37.3025 57.5756 36.9508C57.9273 36.5992 58.1248 36.1223 58.1248 35.625C58.1248 35.1277 57.9273 34.6508 57.5756 34.2992C57.224 33.9475 56.7471 33.75 56.2498 33.75ZM51.4006 18.75L18.7498 51.4008C18.0466 52.1035 17.0932 52.4983 16.099 52.4983C15.1049 52.4983 14.1515 52.1035 13.4483 51.4008L8.5967 46.5539C8.24839 46.2057 7.97209 45.7922 7.78358 45.3372C7.59507 44.8822 7.49805 44.3945 7.49805 43.902C7.49805 43.4094 7.59507 42.9217 7.78358 42.4667C7.97209 42.0117 8.24839 41.5982 8.5967 41.25L41.2498 8.59922C41.5981 8.25091 42.0115 7.97461 42.4665 7.7861C42.9215 7.59759 43.4092 7.50057 43.9018 7.50057C44.3943 7.50057 44.882 7.59759 45.337 7.7861C45.7921 7.97461 46.2055 8.25091 46.5537 8.59922L51.4006 13.4461C51.7489 13.7943 52.0252 14.2078 52.2137 14.6628C52.4022 15.1178 52.4993 15.6055 52.4993 16.098C52.4993 16.5906 52.4022 17.0783 52.2137 17.5333C52.0252 17.9883 51.7489 18.4018 51.4006 18.75ZM38.5967 26.25L33.7498 21.4008L11.2498 43.9008L16.0967 48.75L38.5967 26.25ZM48.7498 16.0992L43.9006 11.25L36.4006 18.75L41.2498 23.5992L48.7498 16.0992Z" fill="#FCF118"/>
</svg>
