<svg width="16" height="16" viewBox="0 0 16 16" fill="none" xmlns="http://www.w3.org/2000/svg">
<path fill-rule="evenodd" clip-rule="evenodd" d="M13.4699 3.29273C14.0727 3.45408 14.5464 3.92776 14.7077 4.53051C14.9993 5.62192 15.0005 7.90039 15.0005 7.90039C15.0005 7.90039 15.0005 10.1789 14.7077 11.2703C14.5464 11.873 14.0727 12.3467 13.4699 12.508C12.3786 12.8008 8.00021 12.8008 8.00021 12.8008C8.00021 12.8008 3.62192 12.8008 2.53051 12.508C1.92776 12.3467 1.45408 11.873 1.29273 11.2703C1 10.1789 1 7.90039 1 7.90039C1 7.90039 1 5.62192 1.29273 4.53051C1.45408 3.92776 1.92776 3.45408 2.53051 3.29273C3.62192 3 8.00021 3 8.00021 3C8.00021 3 12.3786 3 13.4699 3.29273ZM10.2349 7.90039L6.59766 10.0002V5.80054L10.2349 7.90039Z" fill="white"/>
</svg>
