<svg width="94" height="131" viewBox="0 0 94 131" fill="none" xmlns="http://www.w3.org/2000/svg">
<path d="M17 128H2.04V105.322H7.888V122.9H17V128ZM38.858 125.11C36.5687 127.309 33.6787 128.408 30.188 128.408C26.6973 128.408 23.796 127.309 21.484 125.11C19.1947 122.911 18.05 120.101 18.05 116.678C18.05 113.255 19.1947 110.445 21.484 108.246C23.796 106.047 26.6973 104.948 30.188 104.948C33.6787 104.948 36.5687 106.047 38.858 108.246C41.1473 110.445 42.292 113.255 42.292 116.678C42.292 120.101 41.1473 122.911 38.858 125.11ZM30.188 123.24C32.024 123.24 33.5087 122.617 34.642 121.37C35.7753 120.123 36.342 118.559 36.342 116.678C36.342 114.797 35.7753 113.233 34.642 111.986C33.5087 110.739 32.024 110.116 30.188 110.116C28.3293 110.116 26.8333 110.739 25.7 111.986C24.5667 113.233 24 114.797 24 116.678C24 118.559 24.5667 120.123 25.7 121.37C26.8333 122.617 28.3293 123.24 30.188 123.24ZM56.3553 128.408C52.8873 128.408 49.9746 127.331 47.6173 125.178C45.2599 123.025 44.0813 120.191 44.0813 116.678C44.0813 113.165 45.2599 110.331 47.6173 108.178C49.9746 106.025 52.8873 104.948 56.3553 104.948C58.7126 104.948 60.6959 105.469 62.3053 106.512C63.9146 107.555 65.1613 108.869 66.0453 110.456L61.1493 113.006C60.6959 112.19 60.0386 111.51 59.1773 110.966C58.3386 110.399 57.3979 110.116 56.3553 110.116C54.5193 110.116 53.0006 110.751 51.7993 112.02C50.6206 113.267 50.0313 114.819 50.0313 116.678C50.0313 118.537 50.6206 120.101 51.7993 121.37C53.0006 122.617 54.5193 123.24 56.3553 123.24C57.1486 123.24 57.9306 123.104 58.7013 122.832C59.4946 122.56 60.1066 122.243 60.5373 121.88V120.112H55.4373V114.978H66.3853V123.988C63.7106 126.935 60.3673 128.408 56.3553 128.408ZM89.4596 125.11C87.1702 127.309 84.2802 128.408 80.7896 128.408C77.2989 128.408 74.3976 127.309 72.0856 125.11C69.7962 122.911 68.6516 120.101 68.6516 116.678C68.6516 113.255 69.7962 110.445 72.0856 108.246C74.3976 106.047 77.2989 104.948 80.7896 104.948C84.2802 104.948 87.1702 106.047 89.4596 108.246C91.7489 110.445 92.8936 113.255 92.8936 116.678C92.8936 120.101 91.7489 122.911 89.4596 125.11ZM80.7896 123.24C82.6256 123.24 84.1102 122.617 85.2436 121.37C86.3769 120.123 86.9436 118.559 86.9436 116.678C86.9436 114.797 86.3769 113.233 85.2436 111.986C84.1102 110.739 82.6256 110.116 80.7896 110.116C78.9309 110.116 77.4349 110.739 76.3016 111.986C75.1682 113.233 74.6016 114.797 74.6016 116.678C74.6016 118.559 75.1682 120.123 76.3016 121.37C77.4349 122.617 78.9309 123.24 80.7896 123.24Z" fill="white"/>
<rect x="47" y="45.1602" width="30.7741" height="30.7741" rx="10" transform="rotate(45 47 45.1602)" fill="white" stroke="white" stroke-width="10" stroke-linejoin="round"/>
<rect x="47" y="1" width="62" height="62" rx="10" transform="rotate(45 47 1)" stroke="white" stroke-width="10" stroke-linejoin="round"/>
</svg>
