<svg width="82" height="111" viewBox="0 0 82 111" fill="none" xmlns="http://www.w3.org/2000/svg">
<path d="M19.04 109H14.392L6.496 98.192V109H1.68V90.324H6.636L14.196 100.6V90.324H19.04V109ZM40.5506 109H35.0906L34.1666 106.312H26.8026L25.8786 109H20.4186L27.4466 90.324H33.4946L40.5506 109ZM32.8506 102.112L30.4706 95.084L28.0906 102.112H32.8506ZM63.126 109H58.31V96.848L53.578 109H51.45L46.746 96.848V109H41.93V90.324H48.622L52.514 100.46L56.434 90.324H63.126V109ZM80.1767 109H66.4847V90.324H80.1767V94.524H71.3007V97.436H79.9807V101.636H71.3007V104.8H80.1767V109Z" fill="white"/>
<circle cx="40.5" cy="38.5" r="33.5" stroke="white" stroke-width="10"/>
<circle cx="40.5" cy="42.5" r="13.5" stroke="white" stroke-width="8"/>
</svg>
