<svg width="144" height="102" viewBox="0 0 144 102" fill="none" xmlns="http://www.w3.org/2000/svg">
<g clip-path="url(#clip0_462_1521)">
<path d="M109.024 36.3868L107.61 42.1126L103.909 47.1099L99.96 50.3326C99.593 50.5702 99.0883 50.8123 98.4856 50.8168C97.2536 50.8256 96.0239 49.8373 94.9632 48.3137C93.3598 46.0194 92.1301 42.5102 91.821 39.3586C91.7632 38.7678 91.0404 30.0325 97.0157 25.3529C97.4138 25.0419 97.8029 24.7776 98.1698 24.5533C98.7547 24.1957 99.2839 23.9403 99.6998 23.7626L103.109 23.5427L104.952 24.691L107.074 26.8543L108.444 29.635L109.02 36.3891L109.024 36.3868Z" fill="#273252"/>
<path d="M100.011 28.6399C99.6042 27.5116 99.195 26.3834 98.7881 25.2551C99.0861 25.1796 102.11 24.4711 104.577 26.5566C106.676 28.3334 106.814 30.8209 106.829 31.2341C106.035 29.2996 104.388 27.9936 102.586 27.9092C101.394 27.8537 100.465 28.349 100.011 28.6399Z" fill="#5873BF"/>
<path d="M98.3322 43.0121C98.0387 43.6606 97.7362 44.267 97.4382 44.8222C97.2492 44.8866 97.0869 44.9288 96.9668 44.9577C97.3515 44.3336 97.7362 43.7095 98.1187 43.0876C98.1899 43.0632 98.2588 43.0387 98.33 43.0121H98.3322Z" fill="black"/>
<path d="M33.5293 36.3868L34.9436 42.1126L38.644 47.1099L42.5934 50.3326C42.9603 50.5702 43.4651 50.8123 44.0677 50.8168C45.2997 50.8256 46.5294 49.8373 47.5902 48.3137C49.1935 46.0194 50.4233 42.5102 50.7324 39.3586C50.7902 38.7678 51.5129 30.0325 45.5376 25.3529C45.1396 25.0419 44.7504 24.7776 44.3835 24.5533C43.7986 24.1957 43.2694 23.9403 42.8536 23.7626L39.4445 23.5427L37.601 24.691L35.4795 26.8543L34.1097 29.635L33.5337 36.3891L33.5293 36.3868Z" fill="url(#paint0_linear_462_1521)"/>
<path d="M42.8474 28.6399C43.2543 27.5116 43.6635 26.3834 44.0704 25.2551C43.7724 25.1796 40.7481 24.4711 38.282 26.5566C36.1827 28.3334 36.0449 30.8209 36.0293 31.2341C36.8232 29.2996 38.471 27.9936 40.2722 27.9092C41.4642 27.8537 42.3937 28.349 42.8474 28.6399Z" fill="#6F8DCE"/>
<path d="M44.5254 43.0121C44.8189 43.6606 45.1214 44.267 45.4193 44.8222C45.6084 44.8866 45.7707 44.9288 45.8908 44.9577C45.5061 44.3336 45.1214 43.7095 44.7389 43.0876C44.6677 43.0632 44.5988 43.0387 44.5276 43.0121H44.5254Z" fill="black"/>
<path d="M80.7777 15.8935C80.7399 16.3955 80.7021 16.8996 80.6665 17.4038C80.5576 18.8541 80.4508 20.3022 80.3441 21.7526C80.3218 22.0679 80.2974 22.3811 80.2751 22.6943C80.2218 23.4161 80.1684 24.1379 80.115 24.8597C80.0794 25.3128 80.0461 25.7637 80.0127 26.2146C79.9794 26.6788 79.946 27.1385 79.9104 27.6005C79.8348 28.6177 79.7615 29.6305 79.6858 30.6455C79.6302 31.4095 79.5724 32.1713 79.5168 32.9331C79.3278 35.4873 79.1388 38.037 78.9498 40.589C78.9275 40.8932 78.9053 41.1953 78.8831 41.4974V41.5018C78.7452 43.3563 78.6073 45.2087 78.4694 47.0632V47.0743C78.4339 47.5518 78.3983 48.0271 78.3649 48.5047C78.3494 48.6934 78.336 48.88 78.3227 49.0666C78.3027 49.342 78.2826 49.6129 78.2626 49.8883C78.1626 51.2321 78.0625 52.578 77.9624 53.9217C77.9402 54.2526 77.9157 54.5813 77.889 54.9123C77.7423 56.9201 77.5933 58.9279 77.4443 60.9357C77.3842 61.7597 77.3242 62.5836 77.2619 63.4076C77.1641 64.7358 77.064 66.0662 76.9662 67.3944C76.8038 69.6021 76.6393 71.812 76.477 74.0196H45.5021C45.0173 72.1718 44.5548 70.2106 44.1545 68.3294C44.0389 67.783 43.9299 67.2456 43.8254 66.7192C43.7631 66.4082 43.7053 66.104 43.6497 65.8041C43.4162 64.5559 43.2227 63.3921 43.0871 62.3793C43.0804 62.3327 43.0737 62.2883 43.0671 62.2416L42.9937 62.3016L41.2236 63.7741H41.2214L40.761 64.1583L40.7566 64.1628C40.7566 64.1628 40.7566 64.1628 40.7544 64.1539C40.7455 64.0895 40.6943 63.7386 40.6298 63.2811C40.4786 62.2216 40.2451 60.5914 40.2451 60.587C40.2785 60.4226 40.3118 60.256 40.3474 60.0895C41.0079 56.9689 42.1353 53.7951 43.3651 50.7035C44.11 48.8311 44.8906 46.9899 45.6289 45.2064C45.6689 45.1109 45.7067 45.0177 45.7467 44.9222C45.7645 44.8822 45.7801 44.8444 45.7956 44.8044C45.8757 44.6112 45.9535 44.418 46.0336 44.227C42.4378 38.8943 40.9656 33.4906 42.2243 28.3312C42.2265 28.3223 42.2287 28.3134 42.2309 28.3023C42.4933 27.234 42.8736 26.1746 43.3784 25.1307C43.4029 25.0752 43.4318 25.0174 43.4585 24.9619C43.5785 24.7198 43.7031 24.48 43.8365 24.2423C43.961 24.0135 44.0945 23.787 44.2323 23.5605C46.1114 20.4733 49.1157 17.5171 53.3898 14.7697C53.7701 14.5498 54.1414 14.3455 54.5106 14.1611H54.5128C56.1161 13.3416 57.5594 12.8196 58.669 12.482C58.9203 12.4709 59.1716 12.4621 59.4184 12.4532C63.0343 12.3221 65.9585 12.1889 68.0689 12.0845C68.3224 12.0734 68.5648 12.0601 68.7938 12.0489C69.2586 11.9779 69.7256 11.9312 70.1926 11.9112H70.1948C70.6485 11.8913 71.1021 11.8935 71.5535 11.9201H71.558C72.5053 11.9734 73.4393 12.12 74.3421 12.3443C74.6824 12.431 75.0182 12.5287 75.3495 12.6353H75.3517C75.3517 12.6353 75.3673 12.6397 75.3762 12.6442C76.6482 13.0595 77.829 13.6259 78.8475 14.2966C79.3812 14.6475 79.8682 15.0251 80.3018 15.4271C80.4686 15.5804 80.6265 15.7358 80.7755 15.8957L80.7777 15.8935Z" fill="#5873BF"/>
<path d="M44.5459 58.8634C44.6949 55.0499 48.5954 50.1859 51.0327 49.1021C48.204 50.1348 43.5208 53.9772 42.0175 56.3781C41.5105 58.4436 41.1436 61.0156 41.0391 63.0122C42.2065 61.6286 43.3762 60.2471 44.5437 58.8634H44.5459Z" fill="#9ABEF4"/>
<path d="M49.1625 74.0196H45.2087C44.655 72.0163 44.3281 70.104 44.1546 68.3294C44.1079 67.843 44.0701 67.3677 44.0457 66.9035C44.0301 66.6325 44.019 66.3682 44.0123 66.1062V66.1017C43.9789 65.0578 43.9967 64.0784 44.0434 63.1766C44.1391 61.4109 44.3525 59.9428 44.5482 58.8612C44.5571 58.9101 44.566 58.9589 44.5749 59.0078C44.9107 60.8246 45.2443 62.6414 45.5778 64.4604C45.6379 64.7847 45.6979 65.1067 45.7557 65.431C45.7691 65.1867 45.7891 64.929 45.8158 64.658C45.9336 63.4321 46.1871 61.9529 46.7075 60.3315C47.2412 58.6724 47.9128 57.3132 48.5243 56.2693C48.0129 58.9523 47.6348 62.4082 47.9017 66.4015C47.9061 66.4815 47.9128 66.5592 47.9172 66.6392C47.9928 67.6764 48.1063 68.6781 48.253 69.6464C48.2975 69.9485 48.3464 70.2439 48.3953 70.5348C48.6066 71.7586 48.869 72.9202 49.1603 74.0152L49.1625 74.0196Z" fill="#6F8DCE"/>
<path d="M47.6772 42.1725C41.9154 35.9048 43.2986 23.2517 51.3442 18.6053C44.7152 24.5377 44.3616 36.7244 47.6772 42.1725Z" fill="#9ABEF4"/>
<path d="M108.651 27.4583C107.861 25.9347 106.405 23.1251 103.458 22.5321C101.851 22.2079 100.392 22.661 99.3711 23.154C97.2363 19.3561 93.914 16.1334 89.8445 14.0501C89.3108 13.7791 88.1878 13.2172 87.0047 12.049C84.4229 9.49257 83.6935 6.08332 83.4667 3.70239C82.4593 4.23321 81.2162 4.88841 79.7797 5.65244C79.2238 5.94562 78.6434 6.25656 78.034 6.58305H78.0318C78.0318 6.58305 78.0251 6.58749 78.0207 6.58971C77.9918 6.60303 77.9607 6.6208 77.9317 6.63635H77.9295C77.378 6.93174 76.8065 7.23824 76.2128 7.55585C76.1461 7.59139 76.0771 7.62692 76.0104 7.66468C75.9059 7.7202 75.8036 7.77351 75.7035 7.82903C74.5338 8.45758 73.5754 8.9773 72.7748 9.41039H72.7726C71.3516 10.1833 70.4577 10.6808 69.8684 11.0162C69.2791 11.3493 68.9944 11.5204 68.7987 11.6403C68.5497 11.7913 68.3073 11.9379 68.0693 12.0823C64.3045 14.3721 61.9629 15.8513 59.9237 18.0701C59.9081 18.0834 59.8948 18.099 59.8814 18.1145H59.8792C59.3233 18.7253 58.6228 19.5715 57.9045 20.6954C57.9045 20.6954 57.9045 20.6976 57.9023 20.6976C57.4864 21.3483 57.0639 22.0924 56.6592 22.9364C56.4835 23.305 56.3101 23.6893 56.1433 24.098C55.7986 24.9375 55.4739 25.8637 55.1937 26.8764C54.9135 27.8914 54.6734 28.9931 54.491 30.1924C55.4517 29.3928 56.6948 29.1019 57.84 29.3307H57.8422C58.3315 29.4262 58.7985 29.6194 59.221 29.9059C59.7169 30.2413 60.1171 30.6855 60.4018 31.1941C60.8443 31.987 61.0133 32.9376 60.8376 33.8815C60.7131 34.1458 60.5864 34.4101 60.4618 34.6744C58.9341 37.8971 57.4064 41.1153 55.8809 44.3358C55.445 45.2553 55.0069 46.1748 54.5733 47.0943C54.4821 47.2853 54.3932 47.4719 54.3042 47.6607C53.0456 49.3975 51.4467 52.1005 50.6017 55.6941C49.234 61.5154 50.5683 66.5815 51.7936 69.6531C52.2317 70.7548 52.6564 71.5987 52.9388 72.1318C52.9766 71.6942 53.0256 71.2301 53.0967 70.7437C53.239 69.7486 53.4614 68.6603 53.8039 67.5076C54.0663 66.6215 54.362 65.813 54.6689 65.0867C54.7245 66.7414 54.9336 69.5865 55.8275 73.0269C55.912 73.3533 56.0032 73.6843 56.1033 74.0196H98.7306C98.9486 73.3267 99.1487 72.6404 99.3244 71.963C99.8047 70.1284 100.129 68.3672 100.249 66.768C100.252 66.7614 100.252 66.7547 100.252 66.7503C100.274 66.4393 100.289 66.1351 100.298 65.8374V65.8197C100.31 65.3599 100.301 64.9157 100.272 64.4893C100.523 64.6958 100.781 64.9379 101.034 65.2044C101.037 65.2067 101.039 65.2111 101.043 65.2133C101.192 65.371 101.341 65.5398 101.49 65.7108C101.49 65.7108 101.495 65.7175 101.497 65.7219C102.289 66.6525 103 67.7453 103.376 68.5671C103.398 68.6137 103.418 68.6626 103.438 68.707C103.445 68.6381 103.452 68.5693 103.458 68.4982C103.578 67.1945 103.661 65.6553 103.634 63.9296C103.636 63.9251 103.636 63.9207 103.634 63.914C103.632 63.6342 103.623 63.3499 103.612 63.059V63.0434C103.578 62.115 103.512 61.14 103.405 60.1228C103.225 58.4437 102.931 56.6469 102.48 54.7679C102.137 53.3465 101.739 52.0161 101.308 50.7812C103.316 49.5041 105.96 47.352 107.873 43.9227C110.592 39.0454 111.29 32.5511 108.651 27.4583ZM100.61 48.9178C99.9003 47.1565 99.1465 45.6284 98.4415 44.3425C98.7084 44.1737 98.9841 43.9582 99.2488 43.6917C99.8203 43.112 100.116 42.5035 100.267 42.1126C99.9782 42.2769 99.6579 42.4435 99.3088 42.6056C100.367 40.8044 101.092 38.9521 101.521 37.0931C101.897 36.6333 102.251 36.0714 102.504 35.394C102.504 35.394 103.145 33.5728 102.747 31.414C102.727 31.3051 102.711 31.2407 102.711 31.2341C102.713 31.2341 102.713 31.2341 102.713 31.2385C103.018 32.1003 103.283 33.193 103.336 34.4679C103.443 36.9732 102.676 38.8855 102.233 39.8072C102.845 39.1453 104.294 37.4018 104.728 34.7099C105.086 32.4934 104.586 30.7143 104.281 29.8637C104.479 29.9126 104.681 29.9748 104.886 30.0503C105.764 30.3745 106.407 30.8521 106.83 31.2341C106.83 31.2296 106.827 31.2274 106.827 31.2252C106.716 30.7432 106.378 29.5839 105.315 28.7621C104.555 28.1735 103.594 27.887 102.589 27.9092H102.567C102.171 27.9181 101.768 27.9781 101.368 28.0824C101.366 28.0691 101.361 28.058 101.357 28.0447V28.0402C101.092 27.0297 100.748 26.0391 100.327 25.0774C100.269 24.9464 100.214 24.8176 100.152 24.6887C100.656 24.5377 101.241 24.4244 101.871 24.4244C102.298 24.4244 102.745 24.4755 103.2 24.6066C105.913 25.3728 107.01 28.3068 107.612 29.9214C110.07 36.4979 106.454 42.8233 106.185 43.2742C104.517 46.0882 102.306 47.8606 100.61 48.9178Z" fill="black"/>
<path d="M101.43 61.7753C101.43 61.8974 101.43 62.0151 101.426 62.1284C101.39 62.0462 101.352 61.9596 101.312 61.873C100.867 60.8891 100.174 59.6386 99.0839 58.3771C98.2723 57.4354 97.4472 56.7247 96.7423 56.2027C96.7312 57.3133 96.6712 58.4748 96.5422 59.6786C96.2553 62.4083 95.6794 64.9247 94.9411 67.2101C94.4029 68.8803 93.7758 70.4239 93.1131 71.8387C93.1131 71.8387 93.1042 71.8587 93.0998 71.8675C92.8574 72.3828 92.6106 72.8803 92.3593 73.3601C92.3548 73.3712 92.3504 73.3801 92.3437 73.3889C92.2347 73.6022 92.1213 73.8109 92.0101 74.0175H91.5898C91.5898 74.0175 91.5943 74.0064 91.5943 74.0019C91.6855 73.6421 91.7766 73.2757 91.8656 72.9025C91.8656 72.8959 91.87 72.8892 91.8723 72.8803C92.1547 71.6921 92.4215 70.4394 92.6595 69.1246C93.2199 66.0441 93.6313 62.6281 93.758 58.919C93.8692 55.6719 93.7447 52.6736 93.4934 49.9706C94.205 50.3748 95.0367 50.919 95.9017 51.6474C96.7601 52.3715 97.4339 53.0955 97.9476 53.7241C97.6318 52.7935 97.2538 51.8185 96.8068 50.8079C96.6756 50.5103 96.5422 50.2193 96.4043 49.935C96.093 49.2821 95.7705 48.658 95.4436 48.065C94.8076 46.9123 94.1494 45.8706 93.5001 44.9378C93.3866 44.7734 93.2732 44.6113 93.1598 44.4558C93.231 44.5136 93.3066 44.5757 93.3844 44.6402C94.096 45.2332 95.0322 46.086 96.0151 47.2188C96.8668 48.2004 97.7541 49.3953 98.5591 50.8146C98.975 51.5475 99.3686 52.3382 99.7244 53.1933C101.172 56.6669 101.43 59.7919 101.426 61.7775L101.43 61.7753Z" fill="#273252"/>
<path d="M95.0518 21.8147C95.6588 22.8386 96.4505 24.4444 96.8752 26.5477C97.3467 28.8775 97.171 30.8409 96.9642 32.0691C97.5846 31.1496 98.2028 30.2301 98.8233 29.3106C98.6765 28.3245 98.3563 26.9253 97.6046 25.3883C96.7907 23.7248 95.7856 22.5477 95.0518 21.8125V21.8147Z" fill="#273252"/>
<path d="M81.9249 11.9401C79.8435 19.3605 71.1508 22.752 64.1504 23.3339C63.9969 23.345 63.8413 23.3584 63.6878 23.3672C63.6189 23.3717 63.5477 23.3761 63.4788 23.3806C60.3344 23.5827 56.8053 23.2384 52.9248 21.968C52.9559 20.5999 53.116 18.8941 53.5964 16.9863C53.9522 15.5715 54.4058 14.3522 54.855 13.3416C56.4072 10.803 59.2625 7.39595 61.9044 5.20825C61.5797 6.18771 61.2573 7.16496 60.9326 8.14443C65.518 5.62136 73.27 2.8673 78.8295 1.94336C78.1801 7.49145 76.3277 12.7952 71.3976 17.4882C75.3003 16.5376 78.9518 14.6364 81.9294 11.9401H81.9249Z" fill="#5873BF"/>
<path d="M71.3975 17.4771C72.8252 15.8491 74.722 12.1911 75.1846 9.52587C73.0031 11.2449 69.663 13.0795 67.2969 13.9612C70.1144 12.5376 75.0089 7.58249 76.5166 4.15324C76.2831 5.56581 75.9229 7.10719 75.5382 8.40204C76.9035 6.90508 78.4646 3.73569 78.8271 1.94556C79.0673 5.53027 75.5804 14.4032 71.3975 17.4815V17.4771Z" fill="#9ABEF4"/>
<path d="M60.9347 8.13552C59.0601 9.8146 58.8622 10.1722 57.9082 11.5115C61.3639 9.13497 61.7909 8.7574 66.9878 6.11661C71.958 3.73791 77.931 2.16765 78.8294 1.93445C73.2611 3.2715 68.7379 3.28482 60.9325 8.13552H60.9347Z" fill="#9ABEF4"/>
<path d="M80.3754 0C75.4075 0.759586 68.456 2.76516 63.7861 4.80627C64.1441 3.66689 64.5044 2.52973 64.8646 1.39035C60.1035 3.72464 54.255 10.6342 52.7495 14.3633C51.7778 14.8897 50.7771 15.5138 49.7786 16.2623C48.2909 17.3772 45.5423 19.4872 43.5098 23.1652C42.4891 22.6677 41.0192 22.2057 39.4003 22.5322C36.456 23.1252 34.9994 25.9348 34.21 27.4584C31.5682 32.5512 32.2687 39.0454 34.9883 43.9227C36.9452 47.4319 39.6694 49.6063 41.693 50.8678C41.2749 52.0761 40.8924 53.3776 40.5633 54.7679C40.1675 56.4492 39.8984 58.0595 39.7294 59.5742C39.6204 60.5381 39.5515 61.4643 39.5137 62.346C39.5003 62.5992 39.4937 62.848 39.487 63.0923C39.4381 64.9668 39.5248 66.6193 39.6538 67.9896C40.4632 67.0812 41.2727 66.1706 42.0821 65.2622C42.2133 65.1156 42.3445 64.9691 42.4735 64.8225C42.4757 64.8225 42.4757 64.8203 42.4757 64.8203C42.5736 64.7114 42.6714 64.6004 42.7693 64.4893C42.7782 64.6848 42.7871 64.8847 42.8004 65.0912C42.8138 65.3577 42.8338 65.6265 42.8538 65.9063C43.0272 68.1762 43.4186 70.9502 44.2681 74.0197H46.2739C46.0404 73.2046 45.8203 72.3606 45.6246 71.49C45.3244 70.1596 45.0976 68.8758 44.9286 67.6409C44.8908 67.35 44.853 67.0657 44.8196 66.7814C44.6906 65.6753 44.6061 64.6159 44.5594 63.6098C44.4794 61.9129 44.5016 60.3693 44.575 59.0079C44.5794 58.9323 44.5816 58.859 44.5861 58.7858C44.575 58.8013 44.5616 58.8146 44.5505 58.8302H44.5483C43.7611 59.763 42.9739 60.6936 42.1867 61.6264C41.8175 62.0617 41.4506 62.4993 41.0814 62.9346C41.1192 62.2883 41.1771 61.5931 41.2616 60.8535C41.4172 59.4809 41.6641 57.9551 42.0554 56.3271C42.4691 54.588 43.045 52.7313 43.8434 50.8057C43.9545 50.5258 44.0746 50.2504 44.1969 49.9706C44.8196 48.5669 45.4867 47.2942 46.1672 46.146C46.5919 45.4264 47.0211 44.7556 47.4414 44.136C46.3318 42.9033 42.7648 38.6367 42.7693 32.469C42.7737 28.831 44.0146 26.0702 44.6862 24.7465C44.744 24.6288 44.7974 24.5244 44.8463 24.4311C46.821 20.6221 49.5829 18.5499 51.4664 17.1706C52.3226 16.5421 53.1765 15.998 54.0171 15.5271H54.0193C56.5099 14.1212 58.8605 13.3438 60.6839 12.8952C60.2614 12.7464 59.8389 12.5998 59.4186 12.4532C59.114 12.3488 58.8115 12.2422 58.5091 12.1378C57.4506 12.4021 56.2031 12.7864 54.8488 13.3572C54.8088 13.3727 54.7687 13.3927 54.7265 13.4083C54.771 13.386 54.8132 13.3638 54.8555 13.3416C54.9044 13.2639 54.9533 13.1839 55.0044 13.104C55.0534 13.0218 55.1067 12.9396 55.1623 12.8574C55.2135 12.7753 55.2691 12.6931 55.3247 12.6087C55.3803 12.5243 55.4359 12.4399 55.4959 12.3555C55.785 11.9291 56.1008 11.4893 56.441 11.0407C56.5077 10.9518 56.5766 10.863 56.6478 10.7719C56.6767 10.7319 56.7078 10.692 56.739 10.652C56.8479 10.5121 56.9591 10.3699 57.0725 10.23C57.5885 9.58589 58.14 8.93735 58.7115 8.30881C58.8049 8.20442 58.9005 8.10003 58.9983 7.99564C59.094 7.89348 59.1896 7.78909 59.2874 7.68692C59.3697 7.59808 59.4542 7.51146 59.5365 7.42484C59.6188 7.34045 59.701 7.25605 59.7855 7.17165C59.8256 7.12945 59.8656 7.08947 59.9078 7.04727C59.9901 6.96287 60.0724 6.8807 60.1569 6.79852C60.3237 6.63416 60.4905 6.47425 60.6573 6.31656C60.7395 6.2366 60.824 6.15887 60.9063 6.08335C61.0753 5.9301 61.2421 5.77907 61.4067 5.63471C61.5735 5.48812 61.7402 5.34598 61.9048 5.21049C61.5801 6.18774 61.2599 7.16277 60.9352 8.13779C60.9352 8.13779 60.933 8.14223 60.933 8.14445C61.0486 8.08004 61.1665 8.01563 61.2866 7.95345C61.3889 7.89792 61.4934 7.84462 61.5979 7.78909C62.2828 7.43151 63.0256 7.0717 63.8106 6.71412C63.9662 6.64305 64.1241 6.57198 64.2842 6.5009C65.0158 6.17664 65.7808 5.85681 66.5658 5.54365C66.757 5.46813 66.9505 5.3904 67.144 5.3171C67.4353 5.20383 67.7288 5.09278 68.0246 4.98173C68.2203 4.90844 68.4182 4.83514 68.6161 4.76407C68.6339 4.75741 68.6517 4.75075 68.6695 4.74408C68.8296 4.68634 68.9919 4.62637 69.1543 4.57084C69.3166 4.5131 69.4789 4.45535 69.6413 4.39983C69.966 4.28655 70.2928 4.1755 70.6197 4.06667C70.6531 4.05557 70.6864 4.04446 70.722 4.03336C70.9222 3.96673 71.1245 3.9001 71.3269 3.83791C71.7316 3.70687 72.1341 3.58027 72.5366 3.46034C72.7457 3.39815 72.9525 3.33596 73.1615 3.27599C73.355 3.21825 73.5462 3.16494 73.7375 3.11164C73.9354 3.05611 74.1333 3.00059 74.3312 2.94728C74.5291 2.89398 74.7248 2.84067 74.9205 2.79181C75.1006 2.74517 75.2785 2.69853 75.4542 2.65633C75.4587 2.65633 75.4631 2.65189 75.4675 2.65189C75.4809 2.65189 75.492 2.64523 75.5054 2.643C75.6922 2.59636 75.8767 2.55194 76.0591 2.50752C76.4505 2.41646 76.8329 2.32984 77.211 2.24989C77.4 2.20991 77.589 2.17215 77.7736 2.13661C77.9515 2.09886 78.1272 2.06554 78.3006 2.03667C78.4474 2.0078 78.5919 1.98336 78.7365 1.95893H78.7387C78.7387 1.95893 78.7565 1.95449 78.7632 1.95449C78.7854 1.95005 78.8054 1.94783 78.8277 1.94339C78.8254 1.96115 78.8232 1.97892 78.821 1.99447C78.8032 2.14994 78.7832 2.30763 78.7632 2.46532C78.5964 3.83791 78.374 5.26824 78.0204 6.59196C78.0071 6.65193 77.9893 6.70968 77.9737 6.76965C78.0404 6.82517 78.4207 7.13833 78.8744 7.05394C79.3969 6.95843 79.8261 6.37431 79.7794 5.6547C80.222 3.54029 80.4777 1.44366 80.3754 0.00222101V0ZM42.3868 49.0022C41.5306 48.4803 40.5299 47.7695 39.5315 46.83C38.533 45.8906 37.5323 44.7201 36.6762 43.2742C36.4071 42.8211 32.7912 36.4979 35.2485 29.9215C35.8511 28.3068 36.9475 25.3728 39.6605 24.6066C40.8035 24.2823 41.8953 24.44 42.747 24.6999C42.7115 24.7843 42.6759 24.8665 42.6403 24.9486C42.6225 24.9931 42.6025 25.0375 42.5869 25.0797C42.1511 26.1213 41.8375 27.1297 41.6151 28.0736C41.6107 28.0825 41.6085 28.0936 41.6085 28.1025C41.2749 28.0025 40.9391 27.9381 40.6033 27.907H40.5944C39.4826 27.8093 38.3951 28.098 37.5457 28.7621C36.4582 29.6128 36.1291 30.7877 36.0335 31.223C36.0335 31.223 36.0313 31.2297 36.0313 31.2341C36.4538 30.8521 37.0964 30.3746 37.9726 30.0503C38.1772 29.9748 38.3796 29.9126 38.5797 29.8637C38.275 30.7144 37.7725 32.4934 38.1305 34.71C38.5664 37.4018 40.014 39.1453 40.6278 39.8072C40.183 38.8877 39.4158 36.9754 39.5226 34.4679C39.5782 33.193 39.8428 32.1003 40.1452 31.2385H40.1475C40.1475 31.2385 40.1341 31.3052 40.1141 31.4118C39.716 33.5728 40.3565 35.3941 40.3565 35.3941C40.6834 36.2714 41.1837 36.9576 41.6796 37.4751C41.9576 38.5768 42.3112 39.574 42.687 40.4535C43.0606 41.333 43.4564 42.0948 43.8256 42.7301C43.7678 42.7056 43.7122 42.6812 43.6543 42.6545C43.2652 42.4769 42.9116 42.2925 42.5936 42.1126C42.7448 42.5035 43.0406 43.1121 43.6099 43.6918C43.919 44.0049 44.2459 44.2448 44.555 44.4269C44.2036 45.0643 43.8389 45.7662 43.472 46.528C43.1073 47.292 42.7404 48.116 42.3868 49.0022Z" fill="black"/>
<path d="M85.5276 33.3041C85.254 32.238 84.5424 29.4595 82.123 27.485C78.5805 24.5933 74.0151 25.5772 73.368 25.7282C73.07 24.8265 72.0204 22.0435 69.1095 20.1623C67.157 18.9008 65.249 18.6143 64.2483 18.5388C64.3017 18.5143 66.5699 17.1107 66.6255 17.0796C64.6531 16.6798 59.7452 17.7214 57.8884 19.1384C58.3176 18.3211 58.749 17.5016 59.1781 16.682C50.4454 18.9785 46.9296 28.9531 51.9531 35.6139C50.6589 34.8988 49.1957 33.233 48.6953 32.2269C48.9666 36.8799 52.8916 45.6485 55.9381 48.7912C55.9826 48.8467 56.0248 48.8978 56.0671 48.9489C56.0671 48.9467 56.0693 48.9444 56.0715 48.94C56.7253 49.6885 57.4592 50.3437 58.2597 50.91C57.3502 52.8001 56.3606 54.0106 55.5023 55.6852C53.8322 60.3005 59.0425 64.4893 62.029 64.2916C62.794 64.1939 63.6012 64.0495 64.444 63.8452C67.7841 63.0345 70.4082 61.5776 72.285 60.2583C73.5659 61.4598 76.0943 63.4543 79.7458 64.0962C80.4218 64.2161 81.0645 64.2761 81.6627 64.2939C81.9673 64.305 82.2608 64.3027 82.541 64.2939C85.5387 64.4849 90.7356 60.3094 89.0678 55.6874C87.3822 52.5269 86.0635 49.4331 85.3141 46.6968C85.0561 45.5063 84.6292 44.4735 84.0599 43.6473C84.4357 42.9721 85.5365 40.86 85.8122 37.9149C85.9012 36.9732 86.0412 35.3207 85.5231 33.3063L85.5276 33.3041Z" fill="black"/>
<path d="M77.6082 25.4595C75.9271 25.766 75.2043 25.9725 74.9731 25.6572C74.6884 25.2707 75.3489 24.3401 75.4378 24.2179C77.2547 21.6638 81.4709 21.5949 82.9386 21.5705C84.0661 21.5527 85.5693 21.5416 87.4017 22.199C89.0807 22.8009 90.2659 23.6893 90.9642 24.3001C90.4616 23.9448 89.1852 23.1496 87.4017 23.1252C86.2921 23.1097 85.4114 23.3984 84.8822 23.6227C85.6227 23.6449 86.5589 23.7449 87.5996 24.0425C89.3141 24.5311 90.5706 25.3418 91.3444 25.9392C90.2948 25.6194 89.0784 25.324 87.7153 25.1286C85.3314 24.7865 83.241 24.8487 81.5999 25.0286C81.6644 24.8776 81.7444 24.7155 81.849 24.5489C82.2048 23.9759 82.6606 23.6183 82.992 23.4073C82.4694 23.545 81.7934 23.7826 81.0706 24.2024C80.5258 24.5178 80.0922 24.8576 79.7586 25.1574C79.2538 25.2063 78.5066 25.2951 77.606 25.4595H77.6082Z" fill="#5873BF"/>
<path d="M75.0179 25.706C75.8629 24.9153 77.2172 23.8492 79.1163 23.0941C80.1503 22.681 81.1065 22.4567 81.9004 22.3323C81.3623 22.792 80.8241 23.2518 80.2882 23.7115C80.8575 23.4095 81.5668 23.0985 82.4096 22.8609C84.0819 22.3945 85.5474 22.43 86.5192 22.541C86.0433 22.5855 85.2472 22.7276 84.4199 23.2251C83.9663 23.4983 83.6238 23.8048 83.3814 24.0647C84.3732 24.1224 85.494 24.249 86.706 24.4955C88.5384 24.8665 90.0972 25.4062 91.3447 25.9414C90.0172 25.535 88.3226 25.1419 86.3324 24.9731C84.5067 24.8176 82.9011 24.8887 81.6002 25.033C81.7069 24.7821 81.8915 24.4311 82.2051 24.0758C82.4853 23.7582 82.7743 23.5472 82.9923 23.4117C82.6431 23.5027 82.2584 23.6316 81.8515 23.8092C80.9331 24.2135 80.2415 24.7287 79.7589 25.1618C78.6159 25.3417 77.4729 25.5216 76.3299 25.7038C76.1364 25.746 75.9696 25.7748 75.8406 25.7948C75.8406 25.7948 75.3803 25.8748 75.1201 25.7748C75.0846 25.7615 75.0534 25.7393 75.0534 25.7393C75.0379 25.7282 75.0245 25.7171 75.0156 25.7104L75.0179 25.706Z" fill="#273252"/>
<path d="M71.4294 25.9992V26.0103C70.9335 28.0359 69.0477 26.701 67.4533 25.7216C65.2406 24.3712 63.3148 23.1652 59.9992 22.8209C60.9065 23.1452 61.1289 23.5561 61.716 24.2268C60.2305 23.9425 58.6516 24.2202 57.3551 25.0042C57.5153 24.2401 57.8822 23.5316 58.3269 22.8942C52.0403 25.0353 52.4784 33.8705 58.874 35.5429L57.88 33.1175C58.7272 33.9771 59.8413 34.579 61.0244 34.8188C59.8725 35.6184 59.9903 37.8461 60.4506 38.4146C59.4855 40.9022 58.5738 43.1721 56.3834 44.9022C54.6622 43.0588 52.474 39.7162 51.4666 37.3774C52.514 38.2325 55.1759 39.0321 56.3722 38.9432C50.2169 33.5329 49.1939 23.7049 56.6235 19.0296L55.7874 22.2945C57.2706 20.8598 60.7108 18.8764 63.177 18.3234C62.3875 19.023 61.5981 19.7204 60.8087 20.42C63.9953 19.5694 70.2441 21.3639 71.3715 25.5217C71.4094 25.6749 71.4316 25.8371 71.4294 25.997V25.9992Z" fill="url(#paint1_linear_462_1521)"/>
<path d="M56.6253 19.0319L55.7892 22.2967C51.3483 24.6022 52.0488 32.6178 52.6048 33.8416C50.0408 28.2069 51.6152 22.1124 56.6253 19.0319Z" fill="#6F8DCE"/>
<path d="M71.4316 25.8348C71.4338 25.9103 71.4316 25.9725 71.4294 26.008C70.5132 24.551 66.6571 22.3678 64.1954 22.6587C65.4474 22.4899 66.7016 22.3211 67.9514 22.1501C65.9211 21.4238 61.2534 21.2884 58.8584 22.0901C59.3699 21.6548 60.2994 20.8553 60.8109 20.4199C61.0688 20.36 61.4313 20.2867 61.8694 20.24C62.3186 20.1912 64.191 20.0179 66.4548 20.8797C68.474 21.6482 69.8994 22.8941 70.4843 23.6826C71.1959 24.6443 71.396 25.6238 71.396 25.6238C71.4138 25.7148 71.4271 25.7881 71.4338 25.837L71.4316 25.8348Z" fill="#5873BF"/>
<path d="M82.5434 64.2916C82.2632 64.3005 81.9697 64.3027 81.665 64.2916H82.5434Z" fill="black"/>
<path d="M82.8899 35.2496C83.2057 35.9715 83.5192 36.6933 83.835 37.4129C84.4088 36.9109 85.0826 36.2358 85.7341 35.3607C86.4835 34.3546 86.9772 33.3929 87.3019 32.6244C86.7037 33.1641 85.9054 33.7838 84.8935 34.3457C84.1686 34.7477 83.4859 35.0386 82.8877 35.2496H82.8899Z" fill="#273252"/>
<path d="M84.5762 40.5312C84.8742 41.7084 85.1699 42.8877 85.4679 44.0649C86.4553 43.3675 87.6272 42.4058 88.7813 41.1087C90.4558 39.2275 91.4654 37.353 92.0725 35.967C90.9895 37.0998 89.3395 38.5256 87.0357 39.6073C86.1639 40.0159 85.3323 40.3136 84.5762 40.5312Z" fill="#273252"/>
<path d="M65.9716 29.4328C65.8849 29.5616 64.6863 31.274 62.2935 31.4206C60.3833 31.5405 58.5265 30.6122 57.6992 29.0974C58.2329 28.2934 59.1002 27.6938 60.112 27.3828C59.8629 27.7382 59.7162 28.1713 59.7162 28.6399C59.7162 29.857 60.7035 30.8431 61.9221 30.8431C62.8005 30.8431 63.5566 30.3301 63.9124 29.5905C63.8746 29.5949 63.8368 29.5972 63.799 29.5972C63.2698 29.5972 62.8428 29.1707 62.8428 28.6421C62.8428 28.1135 63.2698 27.6871 63.799 27.6871C63.839 27.6871 63.8768 27.6893 63.9124 27.6938C63.8902 27.6471 63.8657 27.6005 63.839 27.5561C64.7819 27.9536 65.5469 28.611 65.9694 29.435L65.9716 29.4328Z" fill="white"/>
<path d="M86.4792 28.9886C85.6542 30.4989 83.7951 31.4273 81.8871 31.3118C79.4943 31.163 78.2935 29.4506 78.209 29.324C78.6849 28.3556 79.6211 27.6072 80.7641 27.2318C80.455 27.6094 80.2726 28.0913 80.2726 28.6177C80.2726 29.8326 81.26 30.8187 82.4764 30.8187C83.3526 30.8187 84.1086 30.3101 84.4644 29.5728C83.953 29.555 83.5438 29.133 83.5438 28.6177C83.5438 28.1024 83.953 27.6805 84.4644 27.6627C84.3999 27.5272 84.3199 27.3984 84.2287 27.2807C85.1716 27.616 85.9766 28.2091 86.4814 28.9886H86.4792Z" fill="white"/>
<path d="M82.4438 64.2917C82.8418 64.7292 84.1561 65.3244 84.8254 65.3178C84.7721 67.7831 82.2414 72.3206 79.8709 74.0197H79.6974C80.9516 72.4361 82.4616 67.7853 80.6069 64.7869C80.7737 65.7842 80.3268 68.1096 79.6174 69.1446C79.7953 68.074 78.9569 64.9135 77.4069 63.7386C77.8317 64.7603 77.5315 66.9458 77.0934 67.6143C77.0534 67.5388 77.0111 67.4655 76.9644 67.3944C74.9186 64.0807 69.1634 64.154 67.2777 67.6143C66.8396 66.9458 66.5372 64.7625 66.9619 63.7386C65.4142 64.9091 64.5758 68.0763 64.7515 69.1446C64.0466 68.1118 63.5996 65.782 63.7641 64.7869C61.9095 67.792 63.415 72.4228 64.6737 74.0197H64.5002C62.1341 72.3206 59.6012 67.7897 59.5434 65.3178C60.2128 65.3244 61.5226 64.7314 61.9229 64.2961C61.9251 64.2939 61.9273 64.2939 61.9273 64.2917C61.8806 64.2917 61.8339 64.2961 61.7872 64.2961H61.6938C58.6784 64.2717 53.7772 60.1828 55.4006 55.6852C55.8275 54.8501 56.2923 54.1283 56.7593 53.382C57.2285 52.6313 57.7044 51.8562 58.1625 50.9078C58.1869 50.9256 58.2114 50.9434 58.2359 50.9611C58.347 51.0389 58.4649 51.1211 58.5917 51.2055C58.665 51.2588 58.7429 51.3098 58.8252 51.3654C58.9119 51.4209 59.0031 51.4809 59.0965 51.5408C59.2277 51.6252 59.3633 51.7118 59.5056 51.7985C59.5523 51.8273 59.6012 51.8562 59.6502 51.8873C59.6746 51.9028 59.6969 51.9162 59.7213 51.9317C59.7992 51.9784 59.877 52.025 59.957 52.0694C60.2995 52.2715 60.6731 52.4803 61.0756 52.6891C61.2935 52.8046 61.5181 52.9179 61.7539 53.0311C61.8762 53.0911 62.0007 53.1488 62.1274 53.2066C62.163 53.2244 62.1964 53.2399 62.232 53.2554C62.4721 53.3665 62.719 53.4753 62.9747 53.5819C62.9791 53.5819 62.9836 53.5864 62.988 53.5886C63.1304 53.6463 63.2727 53.7063 63.4195 53.7641C63.7975 53.9151 64.1911 54.0617 64.598 54.1994C64.6803 54.2282 64.7626 54.2549 64.8449 54.2816C65.0873 54.3615 65.3341 54.4392 65.5854 54.5125C65.6766 54.5414 65.77 54.5681 65.8656 54.5947C65.9523 54.6191 66.0391 54.6436 66.128 54.6658C66.277 54.708 66.426 54.7457 66.5772 54.7835C66.8774 54.859 67.1843 54.9301 67.4978 54.9967C67.6869 55.0367 67.8759 55.0722 68.0694 55.1078C68.7876 55.241 69.537 55.3476 70.3154 55.4165C70.3976 55.4254 70.4821 55.432 70.5666 55.4387C71.1715 55.4853 71.7919 55.512 72.4279 55.5142H72.5102C72.7037 55.5142 72.8949 55.5142 73.0839 55.5053C73.2841 55.5053 73.4842 55.4964 73.6799 55.4853C73.7488 55.4831 73.8178 55.4787 73.8845 55.4742C74.0668 55.4654 74.247 55.452 74.4249 55.4387C74.6317 55.4232 74.8385 55.4054 75.0409 55.3832C75.8548 55.2966 76.6353 55.1744 77.3825 55.0211C77.5537 54.9878 77.7205 54.9523 77.8873 54.9145C78.0874 54.8701 78.2831 54.8213 78.4766 54.7724C78.6656 54.7235 78.8524 54.6747 79.037 54.6236C79.1993 54.5792 79.3594 54.5325 79.5173 54.4837C79.6863 54.4348 79.8531 54.3815 80.0176 54.3282C80.18 54.2771 80.3423 54.2216 80.5047 54.1661C80.6648 54.1128 80.8204 54.055 80.9761 53.9973C81.2207 53.9084 81.4609 53.8151 81.6944 53.7196C81.8078 53.6752 81.919 53.6286 82.0302 53.5819C82.486 53.3909 82.9197 53.1933 83.3266 52.9934C83.4111 52.9512 83.4956 52.9112 83.5779 52.869C83.6913 52.8112 83.8047 52.7557 83.9137 52.698C84.1761 52.5625 84.4274 52.4248 84.6675 52.2893C84.7476 52.2449 84.8254 52.2005 84.901 52.156C85.0078 52.0961 85.1101 52.0339 85.2101 51.9739C85.4837 51.8118 85.7372 51.6519 85.9707 51.5008C86.004 51.4809 86.0352 51.4609 86.0663 51.4387C86.3087 51.281 86.5288 51.1299 86.7245 50.9922C86.9691 51.5786 87.2338 52.1738 87.5117 52.7735C87.9587 53.7352 88.4457 54.7058 88.9683 55.6852C90.5917 60.185 85.706 64.2628 82.6795 64.2961C82.6239 64.2983 82.5705 64.2961 82.5172 64.2917H82.4416H82.4438Z" fill="url(#paint2_linear_462_1521)"/>
<path d="M86.7264 50.9922C84.5538 52.5225 79.4814 55.5364 72.4298 55.5165C65.3293 55.4965 60.2613 52.407 58.1621 50.9079C58.1888 50.8568 58.2133 50.8035 58.2377 50.7524C59.9567 47.432 61.4021 42.9611 61.9536 39.3319C62.305 39.5252 66.1988 41.6529 66.6725 41.9105C65.2448 40.669 60.824 36.8022 63.1256 34.4479C64.3486 33.2597 66.2388 31.0342 68.0045 31.5317C68.7517 31.8005 69.1008 32.5356 69.5411 33.2086C70.0504 33.9882 70.842 35.0187 72.0918 36.1004C72.5632 35.6939 73.0058 35.2608 73.4216 34.8011C73.4772 34.7411 73.5261 34.6834 73.575 34.6256C73.6751 34.5123 73.7663 34.3991 73.8619 34.2858C73.9064 34.2303 73.9509 34.1725 73.9953 34.1192C74.8448 33.1953 75.2562 31.4629 76.6972 31.4518C78.3139 31.5762 79.5214 32.9265 80.6044 33.9993C81.5673 34.77 82.1099 36.0448 81.4672 37.1931C80.8401 38.8677 78.7386 40.8733 77.5155 41.9061H77.5178H77.52C81.3671 40.3447 84.3247 42.5546 85.2165 46.6968C85.5878 48.0539 86.0993 49.4953 86.7264 50.9922Z" fill="url(#paint3_linear_462_1521)"/>
<path d="M85.2794 45.4596C83.5093 46.8345 81.1854 47.8295 78.6103 48.4447C78.6058 47.8939 78.5369 47.2498 78.3457 46.5457C77.9587 45.1265 77.2316 44.0515 76.6712 43.3697C77.0047 44.1781 77.3383 45.2731 77.4161 46.5835C77.4628 47.3853 77.405 48.1049 77.3049 48.7201C75.9729 48.9666 74.5875 49.1177 73.191 49.1687L72.3437 43.0343L71.6521 49.1887C70.0332 49.1665 68.421 49.0155 66.8733 48.7334C66.771 48.1138 66.7131 47.3897 66.7598 46.5835C66.8377 45.2731 67.1712 44.1781 67.5048 43.3697C66.9466 44.0515 66.2172 45.1265 65.8303 46.5457C65.6346 47.2564 65.5679 47.9072 65.5657 48.4625C62.9705 47.8495 60.6222 46.8478 58.8343 45.4596C52.7523 50.5413 57.6758 56.9378 64.4716 60.2627C67.6738 61.6264 70.5469 61.5731 72.3148 61.5376C74.1361 61.5042 77.0225 61.4487 80.2092 59.9118C86.0065 57 91.7461 49.5641 85.2749 45.4596H85.2794Z" fill="black"/>
<path d="M58.4248 46.5214C65.5253 52.0828 79.604 51.6208 86.0195 46.5214C85.4302 49.04 84.8409 51.5564 84.2516 54.075C83.5067 52.7358 82.7617 51.3965 82.0145 50.055C82.0812 50.8013 82.1479 51.5453 82.2147 52.2916C77.458 55.2988 66.904 55.2166 62.3075 52.2916C62.3653 51.5453 62.4231 50.799 62.481 50.0528C61.7449 51.4387 61.0088 52.8246 60.2705 54.2083C59.6545 51.6452 59.0408 49.0844 58.4248 46.5214Z" fill="white"/>
<path d="M81.4655 37.1931C80.8362 38.8677 78.737 40.8733 77.5139 41.906C76.7489 41.3752 75.8883 40.8288 74.9321 40.2914C73.967 39.7472 73.0463 39.2941 72.1857 38.9143L72.0879 36.1048C72.5571 35.6983 72.9996 35.2652 73.4177 34.8055C73.4711 34.7455 73.5222 34.6877 73.5711 34.63C73.6712 34.5167 73.7624 34.4035 73.8558 34.2902C73.9025 34.2347 73.9447 34.1769 73.9892 34.1236C74.8387 33.1997 75.2501 31.4673 76.6911 31.4562C78.3078 31.5806 79.513 32.9309 80.5982 34.0037C81.5611 34.7744 82.1015 36.0492 81.4611 37.1975L81.4655 37.1931Z" fill="#5873BF"/>
<path d="M79.2013 36.4291C79.1323 37.0199 79.0212 37.664 78.8544 38.348C78.503 39.7784 78.0004 40.971 77.5134 41.9061C76.7485 41.3753 75.8879 40.8289 74.9316 40.2914C74.945 40.2848 74.9606 40.2781 74.9761 40.2692C75.0139 40.2514 75.054 40.2337 75.094 40.2115C75.8056 39.8583 76.764 39.2809 77.7047 38.3569C78.3073 37.7617 78.7632 37.1642 79.099 36.6401C79.1412 36.5734 79.1768 36.5024 79.2013 36.4291Z" fill="#273252"/>
<path d="M79.2523 36.0603C79.2634 36.2602 79.2123 36.4645 79.0989 36.64C78.7631 37.1642 78.3094 37.7616 77.7046 38.3569C76.7639 39.283 75.8077 39.8605 75.0939 40.2114C75.0538 40.2314 75.0138 40.2514 74.976 40.2691C74.9605 40.2758 74.9471 40.2847 74.9315 40.2914C74.916 40.2825 74.9004 40.2758 74.8826 40.2669C74.3689 40.0271 73.4305 39.6739 72.2119 39.6673C70.9621 39.6628 70.0037 40.0248 69.4855 40.2669C69.4677 40.2758 69.4522 40.2825 69.4366 40.2914C68.7117 39.9471 67.6776 39.3563 66.6636 38.3569C66.141 37.8416 65.7318 37.3263 65.4138 36.8577C65.3627 36.7844 65.316 36.7111 65.2693 36.64C65.0425 36.2891 65.0647 35.8338 65.3249 35.5051C65.505 35.2785 65.7541 35.032 66.0965 34.8299C66.4056 34.6478 66.7103 34.5478 66.9749 34.4967C67.2017 34.4523 67.4308 34.4923 67.6242 34.5989C67.7666 34.6789 67.8889 34.7921 67.9778 34.9343C68.3603 35.5406 68.8807 36.2447 69.5878 36.9532C70.5285 37.8949 71.4691 38.5168 72.183 38.9121C72.8946 38.5168 73.8374 37.8949 74.7759 36.9532C75.483 36.2447 76.0056 35.5406 76.3859 34.9343C76.5994 34.5967 76.9996 34.419 77.391 34.4967C77.6557 34.5478 77.9603 34.6478 78.2694 34.8299C78.6119 35.0298 78.8609 35.2763 79.0388 35.5051C79.1678 35.6694 79.2367 35.8627 79.2456 36.0603H79.2523Z" fill="black"/>
<path d="M110.739 65.0401L109.708 65.9019L108.162 65.7842C107.942 65.7686 107.722 65.8286 107.544 65.953C107.522 65.9685 107.497 65.9863 107.477 66.0041L102.696 70.0108C102.683 70.0219 102.669 70.033 102.656 70.0485C102.643 70.0596 102.632 70.0729 102.618 70.0863C102.545 70.164 102.487 70.2506 102.443 70.3461C102.34 70.5705 102.329 70.8281 102.414 71.0635C102.449 71.1657 102.505 71.2656 102.58 71.3545L102.83 71.6521L99.992 74.0219H96.8721L99.3271 71.9652L103.379 68.5693L103.461 68.5005L107.884 64.7914L110.742 65.0401H110.739Z" fill="#E5E5E1"/>
<path d="M137.084 51.5275L141.621 51.9228C141.67 51.1788 141.443 50.4148 140.925 49.7973L137.36 45.5552L130.862 50.9833L137.084 51.5275Z" fill="#F84700"/>
<path d="M124.132 66.2083L113.727 65.2977H113.725L106.554 71.29L103.289 74.0196H104.806L104.779 73.8575C104.77 73.7953 104.772 73.7354 104.786 73.6754C104.79 73.6487 104.799 73.6243 104.808 73.5999C104.817 73.5754 104.828 73.551 104.843 73.5288C104.85 73.5133 104.861 73.4977 104.872 73.4844C104.884 73.4711 104.897 73.4577 104.908 73.4444C104.921 73.4289 104.935 73.4178 104.948 73.4066L110.828 68.4782L110.83 68.476L113.621 66.135C113.645 66.1173 113.67 66.0973 113.694 66.084C113.712 66.0751 113.727 66.0662 113.745 66.0595C113.752 66.0551 113.761 66.0529 113.77 66.0507C113.783 66.044 113.799 66.0395 113.812 66.0373C113.825 66.0329 113.841 66.0307 113.854 66.0284C113.861 66.0284 113.87 66.024 113.876 66.024C113.892 66.024 113.91 66.024 113.928 66.024C113.943 66.024 113.959 66.024 113.976 66.024C113.988 66.024 113.996 66.0262 114.008 66.0284C114.025 66.0307 114.043 66.0329 114.059 66.0395C114.068 66.0395 114.077 66.044 114.088 66.0462H114.09C114.154 66.0684 114.217 66.104 114.268 66.1528C114.281 66.1639 114.292 66.1772 114.306 66.1906C114.386 66.2839 114.432 66.4082 114.421 66.5526L114.259 68.4116C114.408 68.5293 114.548 68.6626 114.675 68.8136C114.717 68.8647 114.757 68.9158 114.795 68.9691C114.815 68.9957 114.835 69.0224 114.85 69.049C114.855 69.0557 114.859 69.0601 114.862 69.0668C114.873 69.0801 114.882 69.0957 114.89 69.109C114.942 69.1889 114.988 69.2689 115.028 69.3533C115.044 69.3822 115.057 69.4088 115.068 69.4377C115.113 69.5332 115.151 69.6309 115.182 69.7287C115.186 69.7398 115.188 69.7486 115.191 69.7597C115.197 69.7731 115.202 69.7886 115.204 69.8019C115.224 69.8641 115.24 69.9241 115.251 69.9863C115.26 70.0196 115.266 70.0551 115.271 70.0907C115.284 70.1595 115.293 70.2284 115.3 70.2972C115.3 70.3083 115.3 70.3217 115.3 70.3328C115.302 70.3439 115.304 70.355 115.304 70.3661C115.306 70.3794 115.306 70.3927 115.306 70.4083C115.309 70.4083 115.309 70.4127 115.306 70.4172C115.309 70.4394 115.309 70.4616 115.309 70.4838C115.313 70.6082 115.309 70.7325 115.295 70.8569C115.291 70.9036 115.284 70.9524 115.277 71.0013C115.268 71.0479 115.26 71.0968 115.248 71.1434C115.237 71.199 115.224 71.2545 115.208 71.3078C115.202 71.3389 115.188 71.37 115.18 71.4011C115.177 71.4144 115.173 71.4255 115.168 71.4366C115.155 71.4744 115.142 71.5121 115.126 71.5499C115.124 71.5588 115.119 71.5676 115.115 71.5788C115.108 71.5965 115.102 71.6143 115.095 71.6321C115.079 71.6631 115.066 71.6942 115.053 71.7276C115.044 71.7453 115.035 71.7631 115.026 71.7786C115.011 71.812 114.993 71.8453 114.973 71.8764C114.953 71.9119 114.935 71.9474 114.913 71.983C114.857 72.0763 114.795 72.1673 114.724 72.2539C114.695 72.2939 114.661 72.3317 114.626 72.3694C114.619 72.3805 114.61 72.3916 114.599 72.4005C114.561 72.4427 114.524 72.4827 114.481 72.5227C114.435 72.5671 114.388 72.6115 114.337 72.6537C114.279 72.7026 114.217 72.7492 114.157 72.7914C114.13 72.8114 114.103 72.8292 114.074 72.8469C114.019 72.8847 113.963 72.918 113.905 72.9491C113.85 72.9824 113.792 73.0113 113.732 73.038C113.692 73.0579 113.652 73.0757 113.612 73.0913C113.556 73.1135 113.501 73.1335 113.445 73.1512C113.405 73.1646 113.363 73.1779 113.32 73.1912C113.305 73.1957 113.292 73.2001 113.276 73.2023C113.238 73.2112 113.2 73.2223 113.163 73.229C113.058 73.2534 112.954 73.2689 112.847 73.2778C112.818 73.2823 112.789 73.2845 112.76 73.2845C112.731 73.2845 112.702 73.2889 112.673 73.2889C112.596 73.2934 112.518 73.2912 112.438 73.2889C112.402 73.2889 112.366 73.2845 112.331 73.28C112.306 73.28 112.282 73.28 112.258 73.2734C112.255 73.2734 112.253 73.2734 112.251 73.2734C112.222 73.2712 112.193 73.2667 112.164 73.2623C112.144 73.2578 112.122 73.2556 112.102 73.2512C112.075 73.2467 112.051 73.2423 112.024 73.2356C112.017 73.2356 112.011 73.2356 112.004 73.2312C111.96 73.2223 111.917 73.2112 111.873 73.2001C111.775 73.1734 111.679 73.1423 111.584 73.1046C111.495 73.0713 111.41 73.0313 111.326 72.9891C111.321 72.9891 111.319 72.9847 111.315 72.9847C111.29 72.9691 111.266 72.9558 111.241 72.9425C111.21 72.9247 111.181 72.9091 111.152 72.8891C111.099 72.8581 111.048 72.8225 110.997 72.787C110.93 72.7403 110.865 72.6893 110.803 72.636C110.77 72.6071 110.739 72.5782 110.708 72.5516C110.708 72.5493 110.705 72.5493 110.705 72.5471C110.668 72.5116 110.632 72.476 110.596 72.4383C110.561 72.4005 110.525 72.3605 110.492 72.3206C110.476 72.3028 110.461 72.2806 110.447 72.2628C110.445 72.2628 110.445 72.2628 110.445 72.2628C109.413 72.4094 108.435 72.8403 107.623 73.5199L107.023 74.0241H113.12C114.457 72.9003 115.793 71.7786 117.13 70.6548C117.245 71.5676 117.363 72.4827 117.479 73.3933L116.727 74.0241H118.893L123.37 70.2706L126.036 70.5038C126.032 70.4838 126.025 70.4682 126.02 70.4505C126.02 70.446 126.02 70.4438 126.018 70.4394C126.014 70.4283 126.012 70.4149 126.007 70.4061C126.003 70.395 126 70.3838 125.996 70.3727C125.983 70.3261 125.969 70.2795 125.958 70.2328C125.954 70.2173 125.949 70.2039 125.947 70.1884H125.945C125.929 70.1262 125.916 70.0662 125.903 70.0041H125.9C125.898 69.9907 125.896 69.9796 125.894 69.9663C125.891 69.9574 125.889 69.9485 125.889 69.9396C125.883 69.9108 125.876 69.8797 125.871 69.853C125.869 69.8397 125.867 69.8264 125.865 69.8153C125.865 69.813 125.863 69.8086 125.863 69.8064C125.863 69.7997 125.863 69.7953 125.858 69.7886C125.851 69.7509 125.845 69.7109 125.84 69.6731C125.831 69.6243 125.827 69.5776 125.82 69.531C125.816 69.4999 125.814 69.4688 125.809 69.4399C125.805 69.3977 125.8 69.3511 125.798 69.3067C125.796 69.2911 125.796 69.2756 125.794 69.26V69.2445V69.24C125.791 69.2289 125.791 69.2178 125.791 69.2089C125.789 69.1912 125.787 69.1734 125.787 69.1556C125.785 69.129 125.785 69.1023 125.785 69.0757C125.782 69.0668 125.782 69.0601 125.782 69.0512C125.78 69.0046 125.78 68.9602 125.78 68.9135V68.8891C125.778 68.8736 125.778 68.858 125.778 68.8447V68.8358C125.78 68.6692 125.791 68.5026 125.807 68.3361C125.831 68.1006 125.874 67.8652 125.929 67.6342C125.94 67.5965 125.949 67.5587 125.958 67.521C125.996 67.381 126.038 67.2411 126.087 67.1056C126.1 67.0657 126.116 67.0257 126.134 66.9879C126.145 66.959 126.156 66.9302 126.167 66.9035C126.174 66.8813 126.183 66.8613 126.194 66.8413C126.194 66.8325 126.198 66.8258 126.201 66.8191C126.203 66.8147 126.203 66.8125 126.205 66.8102C126.214 66.7902 126.221 66.7725 126.229 66.7525C126.245 66.7147 126.263 66.6748 126.281 66.637C126.301 66.5992 126.318 66.5615 126.336 66.5237C126.356 66.486 126.376 66.4482 126.394 66.4105L124.13 66.2128L124.132 66.2083ZM119.009 72.0785L118.457 67.4033L124.179 67.7742L119.009 72.0785Z" fill="#E5E5E1"/>
<path d="M125.998 70.3684C126.012 70.4106 126.025 70.455 126.038 70.4994C126.025 70.455 126.012 70.4128 125.998 70.3684C125.847 69.8642 125.778 69.3489 125.78 68.8403C125.776 69.3489 125.847 69.8642 125.998 70.3684Z" fill="#E5E5E1"/>
<path d="M126.283 66.6348C126.212 66.788 126.148 66.9435 126.09 67.1034C126.145 66.9457 126.21 66.788 126.283 66.6348Z" fill="#E5E5E1"/>
<path d="M126.09 67.1012C126.041 67.2389 125.999 67.3766 125.961 67.5165C125.999 67.3766 126.041 67.2367 126.09 67.1012Z" fill="#E5E5E1"/>
<path d="M125.809 68.3317C125.791 68.4982 125.782 68.6626 125.78 68.8314C125.78 68.6648 125.791 68.4982 125.809 68.3317Z" fill="#E5E5E1"/>
<path d="M132.892 40.2359L133.308 40.7312C133.308 40.7312 133.293 40.7134 133.284 40.7045C133.266 40.6845 133.25 40.6668 133.23 40.6512C132.75 40.187 131.987 40.1493 131.462 40.589L122.478 48.1183L120.175 50.0505L118.82 51.1877L118.155 51.7452L105.222 62.5882L104.942 62.8236L104.559 63.1456L103.639 63.9163L101.495 65.7131L100.256 66.7503L92.3687 73.3623L91.6037 74.0042L91.5837 74.0197H90.543L91.875 72.9025L93.1092 71.8698L100.305 65.8375L101.05 65.2134L103.621 63.059L131.042 40.0738C131.483 39.7028 132.096 39.6718 132.565 39.9516C132.608 39.976 132.648 40.0027 132.686 40.0316C132.706 40.0471 132.723 40.0604 132.743 40.0782C132.759 40.0915 132.772 40.1049 132.788 40.1182C132.792 40.1204 132.795 40.1226 132.797 40.1271C132.812 40.1404 132.826 40.1537 132.841 40.1715C132.846 40.1737 132.848 40.1781 132.85 40.1804C132.866 40.1959 132.877 40.2115 132.892 40.227C132.892 40.227 132.897 40.2337 132.899 40.2359H132.892Z" fill="white"/>
<path d="M133.324 40.7504C133.324 40.7504 133.315 40.7397 133.309 40.7355V40.7312L133.324 40.7504Z" fill="white"/>
<path d="M131.469 40.5978L122.496 48.1182L130.335 48.6668L135.999 43.936L133.33 40.76C132.861 40.2025 132.027 40.1292 131.469 40.5978Z" fill="#E5E5E1"/>
<path d="M133.332 40.76L135.998 43.936L133.323 40.7511L133.332 40.76Z" fill="#E5E5E1"/>
<path d="M131.469 40.5978C132.027 40.1292 132.861 40.2025 133.33 40.76L133.322 40.7489C132.852 40.1914 132.018 40.1181 131.46 40.5867L122.479 48.116H122.496L131.469 40.5956V40.5978Z" fill="#E5E5E1"/>
<path d="M141.621 51.9229L137.084 51.5275L131.714 51.0589L130.862 50.9856L129.501 52.1205L141.267 53.1489C141.296 53.0956 141.323 53.0423 141.347 52.9867C141.354 52.9712 141.36 52.9556 141.367 52.9423C141.385 52.9023 141.403 52.8624 141.418 52.8224C141.425 52.8046 141.431 52.7846 141.438 52.7668C141.452 52.7291 141.465 52.6913 141.478 52.6514C141.485 52.6336 141.492 52.6136 141.496 52.5936C141.509 52.5514 141.52 52.5092 141.532 52.467C141.536 52.4537 141.538 52.4381 141.543 52.4248C141.56 52.3515 141.574 52.2782 141.587 52.2027C141.589 52.1872 141.592 52.1716 141.594 52.1561C141.605 52.0806 141.614 52.005 141.621 51.9273V51.9229Z" fill="url(#paint4_linear_462_1521)"/>
<path d="M127.878 50.7235L120.192 50.0505L118.836 51.1877L126.517 51.8584L127.878 50.7235Z" fill="url(#paint5_linear_462_1521)"/>
<path d="M125.852 52.4136L118.171 51.7451L105.237 62.5859L112.876 63.2544L125.852 52.4136Z" fill="url(#paint6_linear_462_1521)"/>
<path d="M112.211 63.8097L110.739 65.0401L107.881 64.7914L103.458 68.5005L103.376 68.5693L99.3243 71.9652L96.8692 74.0241H96.7291C96.5045 74.0241 96.2822 74.0241 96.0576 74.0241H95.1925C95.0524 74.0241 94.9145 74.0241 94.7744 74.0241H91.5967L92.3439 73.3956L100.247 66.7703L101.495 65.7242L103.632 63.9341L104.572 63.1478L112.209 63.8141L112.211 63.8097Z" fill="url(#paint7_linear_462_1521)"/>
<path d="M127.964 64.5716L140.404 54.1439C140.562 54.0106 140.713 53.8707 140.858 53.7241L135.063 53.2177L128.834 52.6736L115.86 63.5121L127.964 64.5693V64.5716Z" fill="url(#paint8_linear_462_1521)"/>
<path d="M127.335 65.129L115.198 64.0696L113.726 65.3L126.397 66.4061C126.581 66.0574 126.804 65.7287 127.062 65.4244C127.148 65.3222 127.239 65.2245 127.333 65.129H127.335Z" fill="url(#paint9_linear_462_1521)"/>
<path d="M141.594 52.1494C141.594 52.165 141.589 52.1805 141.587 52.1961C141.589 52.1805 141.591 52.165 141.594 52.1494Z" fill="url(#paint10_linear_462_1521)"/>
<path d="M140.86 53.7241C140.716 53.8707 140.564 54.0106 140.407 54.1439C140.564 54.0129 140.716 53.8707 140.86 53.7241Z" fill="url(#paint11_linear_462_1521)"/>
<path d="M141.542 52.4314C141.542 52.4314 141.542 52.4247 141.542 52.4203C141.54 52.4336 141.536 52.4492 141.531 52.4625C141.533 52.4514 141.538 52.4403 141.54 52.4292L141.542 52.4314Z" fill="url(#paint12_linear_462_1521)"/>
<path d="M141.498 52.5891C141.492 52.6091 141.487 52.6269 141.48 52.6469C141.487 52.6291 141.494 52.6091 141.498 52.5891Z" fill="url(#paint13_linear_462_1521)"/>
<path d="M127.061 65.4243C126.801 65.7286 126.579 66.0573 126.396 66.406C126.581 66.0573 126.803 65.7286 127.061 65.4243Z" fill="url(#paint14_linear_462_1521)"/>
<path d="M141.367 52.9379C141.36 52.9534 141.353 52.969 141.347 52.9823C141.353 52.9667 141.36 52.9512 141.367 52.9379Z" fill="url(#paint15_linear_462_1521)"/>
<path d="M104.573 63.1433L103.634 63.9296L101.497 65.7219L100.25 66.768L92.3466 73.3911L91.5972 74.0196H91.5771L91.5972 74.0041L92.3621 73.3622L100.25 66.748H100.252L101.488 65.713V65.7108L103.634 63.914L104.555 63.1411L104.573 63.1433Z" fill="url(#paint16_linear_462_1521)"/>
<path d="M118.153 51.7429H118.155L118.171 51.7451L105.235 62.5859H105.22L118.153 51.7429Z" fill="url(#paint17_linear_462_1521)"/>
<path d="M118.818 51.1854L118.155 51.7429L118.818 51.1854Z" fill="url(#paint18_linear_462_1521)"/>
<path d="M120.193 50.0528L118.836 51.1877L118.818 51.1855L120.175 50.0505L120.193 50.0528Z" fill="url(#paint19_linear_462_1521)"/>
<path d="M129.501 52.1183L128.836 52.6735L135.065 53.2177L140.86 53.7241C140.922 53.653 140.982 53.5797 141.038 53.5064C141.076 53.4553 141.113 53.402 141.147 53.3487C141.171 53.311 141.193 53.2732 141.218 53.2332C141.236 53.2044 141.253 53.1755 141.269 53.1466L129.503 52.1205L129.501 52.1183Z" fill="#E5E5E1"/>
<path d="M126.517 51.8584L118.836 51.1876L118.171 51.7451L125.852 52.4136L126.517 51.8584Z" fill="#E5E5E1"/>
<path d="M140.86 53.7241C140.923 53.6531 140.983 53.5798 141.038 53.5065C140.983 53.5798 140.925 53.6553 140.86 53.7241Z" fill="#E5E5E1"/>
<path d="M141.218 53.2333C141.195 53.271 141.171 53.3088 141.146 53.3488C141.171 53.311 141.193 53.2733 141.218 53.2333Z" fill="#E5E5E1"/>
<path d="M118.818 51.1876L118.153 51.7429L118.171 51.7451L118.836 51.1876H118.818Z" fill="#E5E5E1"/>
<path d="M127.7 64.7958L127.742 64.7581L127.774 64.7314L127.7 64.7958Z" fill="#E5E5E1"/>
<path d="M127.742 64.7581L127.965 64.5715L127.773 64.7314L127.742 64.7581Z" fill="#E5E5E1"/>
<path d="M105.237 62.5859L104.572 63.1434L112.211 63.8097L112.876 63.2545L105.237 62.5859Z" fill="#E5E5E1"/>
<path d="M127.773 64.7314L127.964 64.5715L115.86 63.5143L115.195 64.0695L127.333 65.129C127.362 65.1001 127.39 65.0734 127.419 65.0446C127.508 64.9579 127.599 64.8735 127.697 64.7936L127.771 64.7314H127.773Z" fill="#E5E5E1"/>
<path d="M127.965 64.5715L127.773 64.7314L127.965 64.5715Z" fill="#E5E5E1"/>
<path d="M105.217 62.5859L104.555 63.1412L104.572 63.1434L105.237 62.5859H105.217Z" fill="#E5E5E1"/>
<path d="M130.337 48.6669L122.496 48.1183L120.192 50.0506L127.878 50.7235L130.337 48.6669Z" fill="#F84700"/>
<path d="M122.496 48.1183H122.478L120.172 50.0506H120.192L122.496 48.1183Z" fill="#F84700"/>
<path d="M124.18 67.7743L118.458 67.4011L119.009 72.0786L124.18 67.7743Z" fill="#F84700"/>
<path d="M117.482 73.3889L116.732 74.0197H113.123C114.462 72.8958 115.798 71.7742 117.135 70.6504C117.25 71.5632 117.368 72.4761 117.484 73.3889H117.482Z" fill="#F84700"/>
<path d="M128.278 74.0196H118.896L123.372 70.2661L126.038 70.4993C126.192 70.9835 126.383 71.4277 126.601 71.8364C126.688 72.0007 126.779 72.1562 126.874 72.3094C127.25 72.9158 127.682 73.4311 128.115 73.8619C128.169 73.9152 128.224 73.9685 128.278 74.0196Z" fill="url(#paint20_linear_462_1521)"/>
<path d="M126.039 70.4994C126.531 72.0474 127.411 73.1979 128.276 74.0197C127.409 73.2001 126.528 72.0474 126.039 70.4994Z" fill="url(#paint21_linear_462_1521)"/>
<path d="M143.989 52.0805V52.0849C143.936 52.8579 143.725 53.593 143.358 54.2726C143.158 54.6458 142.911 54.9967 142.624 55.3121L142.591 55.3521L142.553 55.3898C142.357 55.5897 142.146 55.7829 141.93 55.9628L129.49 66.3905L129.224 66.6148C129.155 66.6726 129.086 66.737 129.019 66.8014C128.81 67.0124 128.634 67.2522 128.496 67.5143C128.138 68.1939 128.056 68.9669 128.27 69.6887L128.278 69.7153C128.285 69.7331 128.29 69.7531 128.296 69.7709L128.301 69.7797V69.7886C129.032 72.0874 131.047 73.2245 131.645 73.5177L131.699 73.5421C131.939 73.6599 132.154 73.8242 132.332 74.0241H128.276C127.734 73.5111 127.189 72.8692 126.735 72.0829C126.644 71.9252 126.557 71.7631 126.475 71.5921C126.31 71.2545 126.164 70.8903 126.039 70.5038C126.032 70.4816 126.026 70.4594 126.019 70.4394C126.012 70.4172 126.006 70.395 125.999 70.375C125.961 70.2528 125.93 70.1284 125.903 70.0063C125.899 69.9841 125.895 69.9619 125.89 69.9419C125.883 69.913 125.877 69.8819 125.872 69.853C125.87 69.8397 125.868 69.8286 125.866 69.8153C125.866 69.8064 125.861 69.7975 125.861 69.7886C125.841 69.6731 125.823 69.5554 125.812 69.4399C125.806 69.38 125.801 69.32 125.797 69.26C125.786 69.1201 125.781 68.9824 125.783 68.8425V68.8336C125.786 68.667 125.794 68.5004 125.812 68.3361C125.837 68.0984 125.879 67.8652 125.935 67.6342C125.943 67.5943 125.955 67.5565 125.963 67.5188C126.001 67.3788 126.044 67.2411 126.092 67.1034C126.106 67.0634 126.121 67.0235 126.137 66.9857C126.166 66.9058 126.199 66.828 126.233 66.7503C126.248 66.7125 126.266 66.6725 126.284 66.6348C126.302 66.597 126.322 66.5571 126.339 66.5193C126.359 66.4815 126.379 66.4438 126.397 66.406C126.488 66.2328 126.591 66.0618 126.702 65.8974C126.757 65.8152 126.815 65.7353 126.875 65.6553C126.904 65.6153 126.935 65.5754 126.966 65.5376C126.998 65.4999 127.029 65.4599 127.062 65.4221C127.149 65.32 127.238 65.2222 127.333 65.1267C127.36 65.0979 127.391 65.0712 127.42 65.0423C127.465 65.0001 127.509 64.9557 127.556 64.9157C127.602 64.8735 127.649 64.8313 127.696 64.7914L127.729 64.7647L127.738 64.7558L127.96 64.5693L140.4 54.1416C140.44 54.1083 140.48 54.075 140.518 54.0417C140.596 53.975 140.671 53.9039 140.745 53.8307C140.783 53.7951 140.818 53.7574 140.856 53.7218C140.918 53.653 140.978 53.5797 141.034 53.5042C141.072 53.4531 141.11 53.3998 141.143 53.3465C141.167 53.3087 141.192 53.271 141.214 53.231C141.23 53.2021 141.247 53.1732 141.265 53.1444C141.294 53.0911 141.321 53.0378 141.345 52.9822C141.35 52.9733 141.352 52.9667 141.356 52.96C141.361 52.9511 141.363 52.9445 141.368 52.9378C141.385 52.8978 141.401 52.8579 141.416 52.8179C141.423 52.8045 141.428 52.7912 141.432 52.7779C141.434 52.7735 141.436 52.7668 141.439 52.7624C141.452 52.7246 141.463 52.6891 141.476 52.6513C141.476 52.6446 141.481 52.6402 141.483 52.6335C141.488 52.618 141.492 52.6047 141.496 52.5891C141.505 52.558 141.514 52.5269 141.523 52.4958C141.528 52.4847 141.53 52.4736 141.532 52.4625C141.534 52.4514 141.539 52.4403 141.541 52.4292C141.541 52.4248 141.541 52.4225 141.543 52.4203C141.545 52.4114 141.548 52.4025 141.55 52.3959C141.561 52.347 141.57 52.2959 141.579 52.2471C141.581 52.2315 141.585 52.216 141.588 52.2004C141.592 52.1849 141.592 52.1693 141.594 52.1516C141.605 52.0761 141.614 52.0005 141.619 51.9228C141.621 51.8895 141.623 51.8562 141.625 51.8229C141.625 51.7784 141.625 51.7362 141.625 51.6918C141.625 51.6319 141.621 51.5719 141.619 51.5141C141.619 51.4853 141.614 51.4542 141.612 51.4253C141.605 51.3676 141.599 51.3076 141.59 51.2498C141.585 51.2232 141.581 51.1943 141.574 51.1677C141.563 51.1055 141.55 51.0433 141.534 50.9811C141.53 50.9633 141.523 50.9456 141.519 50.9278C141.499 50.8589 141.479 50.7901 141.456 50.7235C141.454 50.7168 141.45 50.7079 141.448 50.7013C141.392 50.548 141.323 50.3992 141.241 50.2548C141.236 50.2459 141.232 50.2393 141.227 50.2304C141.141 50.0794 141.041 49.935 140.925 49.7973L137.36 45.5552L130.862 50.9833L129.504 52.1183L128.839 52.6757L115.865 63.5143L115.2 64.0695L113.731 65.2977L106.559 71.29L103.294 74.0197H99.9966L102.832 71.6498L102.583 71.3522C102.507 71.2634 102.452 71.1657 102.416 71.0613C102.332 70.8281 102.343 70.5682 102.445 70.3439C102.487 70.2506 102.545 70.1618 102.621 70.084C102.634 70.0707 102.645 70.0574 102.658 70.0463C102.672 70.0329 102.685 70.0218 102.698 70.0085L107.48 66.0018C107.502 65.984 107.524 65.9663 107.546 65.9507C107.724 65.8241 107.944 65.7642 108.164 65.7819L109.71 65.8996L110.742 65.0379L112.214 63.8074L112.879 63.2522L125.855 52.4114L126.519 51.8562L127.88 50.7212L130.34 48.6646L136.002 43.9338L133.324 40.7489L133.311 40.7333V40.7289L132.893 40.2336L132.886 40.2247H132.884C132.871 40.207 132.857 40.1914 132.842 40.1759C132.842 40.1759 132.835 40.167 132.833 40.1648C132.819 40.1492 132.804 40.1337 132.788 40.1226C132.788 40.1226 132.782 40.1137 132.779 40.1115C132.77 40.1026 132.764 40.0959 132.755 40.087C132.717 40.0537 132.677 40.0204 132.635 39.9915C132.601 39.9671 132.564 39.9427 132.528 39.9227C132.495 39.9027 132.459 39.8849 132.424 39.8694C132.379 39.8494 132.337 39.8316 132.292 39.8183C132.032 39.7317 131.75 39.7272 131.487 39.8094C131.325 39.8583 131.169 39.9427 131.031 40.0582L121.503 48.0449L119.214 49.9617L117.86 51.0988L117.195 51.6563L104.26 62.4993L103.615 63.039L103.597 63.0545L101.035 65.2L100.299 65.8175L93.1162 71.8386L91.8754 72.8781L90.5166 74.0152H86.8252L92.6648 69.1223L94.9464 67.21L101.315 61.8707L101.433 61.773L102.069 61.24L102.734 60.6847L103.406 60.1228L115.67 49.8417L116.332 49.2865L117.689 48.1493L119.975 46.2326L129.501 38.248C131.06 36.9421 133.395 37.1464 134.703 38.7011L139.108 43.9427L142.744 48.2715C143.64 49.3375 144.083 50.6901 143.989 52.0783V52.0805Z" fill="black"/>
<path d="M113.922 70.5926L112.089 72.1118C111.989 72.194 111.863 72.2339 111.736 72.2228C111.304 72.1851 110.871 72.1984 110.448 72.2606C110.464 72.2806 110.477 72.3006 110.493 72.3206C111.462 73.4733 113.183 73.6243 114.338 72.6559C115.492 71.6876 115.643 69.9685 114.673 68.8158C114.547 68.6648 114.407 68.5315 114.258 68.416L114.095 70.2617C114.084 70.3905 114.022 70.5104 113.922 70.5926Z" fill="white"/>
<path d="M114.42 66.5526L114.257 68.4116L114.095 70.2595C114.088 70.3239 114.07 70.3861 114.041 70.4438C114.033 70.4571 114.026 70.4727 114.017 70.486C113.99 70.526 113.957 70.5615 113.921 70.5926L112.089 72.1118C112.089 72.1118 112.067 72.1296 112.056 72.1384C111.964 72.2028 111.851 72.2317 111.738 72.2228H111.735C111.651 72.214 111.566 72.2095 111.484 72.2073C111.137 72.1917 110.79 72.2117 110.45 72.2606C109.418 72.4072 108.44 72.8381 107.628 73.5177L107.028 74.0219H104.808L104.782 73.8597C104.773 73.7975 104.775 73.7376 104.788 73.6776C104.799 73.6265 104.82 73.5777 104.846 73.531C104.855 73.5155 104.864 73.4999 104.875 73.4866C104.886 73.4733 104.897 73.4599 104.911 73.4444C104.924 73.4311 104.935 73.42 104.951 73.4066L110.833 68.4782L113.623 66.1373C113.648 66.1173 113.672 66.0995 113.697 66.0862C113.735 66.064 113.775 66.0484 113.815 66.0373C113.997 65.9885 114.19 66.0551 114.308 66.1928C114.391 66.2861 114.437 66.4104 114.424 66.5548L114.42 66.5526Z" fill="url(#paint22_linear_462_1521)"/>
<path d="M4.39637 46.4992L2.90423 48.2804C2.88644 48.3049 2.86642 48.3271 2.84863 48.3493C2.86642 48.3271 2.88421 48.3049 2.90423 48.2826L4.3986 46.4969L4.39637 46.4992Z" fill="#020202"/>
<path d="M10.6006 39.7895C10.6006 39.7895 10.5984 39.7895 10.5962 39.7895C10.5895 39.7917 10.5829 39.794 10.5762 39.7962C10.5273 39.8117 10.4783 39.8295 10.4316 39.8473C10.4961 39.8228 10.5606 39.8006 10.6273 39.7806C10.6184 39.7806 10.6095 39.7851 10.6006 39.7873V39.7895Z" fill="#020202"/>
<path d="M12.6154 39.9628C12.691 40.0005 12.7644 40.045 12.8378 40.0916C12.5998 39.9428 12.3441 39.8317 12.0795 39.7629C12.0039 39.7429 11.9282 39.7251 11.8526 39.714C11.5168 39.6563 11.1744 39.6629 10.8408 39.7318C10.8697 39.7229 10.9009 39.7185 10.932 39.714C10.9542 39.7096 10.9765 39.7051 10.9965 39.7029C11.0143 39.7007 11.0298 39.6985 11.0476 39.6963C11.2478 39.6696 11.4501 39.6652 11.6525 39.6852C11.8838 39.7074 12.1128 39.7607 12.333 39.8428C12.3641 39.854 12.3952 39.8673 12.4264 39.8806C12.4886 39.9073 12.5509 39.9339 12.6132 39.965L12.6154 39.9628Z" fill="#020202"/>
<path d="M12.8382 40.0916C12.8715 40.1138 12.9071 40.136 12.9405 40.1582C12.9071 40.1338 12.8715 40.1115 12.8359 40.0916H12.8382Z" fill="#020202"/>
<path d="M53.479 74.0198L48.2509 69.6511L44.8152 66.7815L44.008 66.1063L43.6455 65.802L42.796 65.0913L42.4691 64.8204L41.2171 63.7743L40.6256 63.279L39.5093 62.3461L13.1332 40.307C13.0687 40.2537 13.0042 40.2049 12.9375 40.156C13.0042 40.2004 13.0687 40.2515 13.1332 40.3048L39.5093 62.3439L40.6256 63.2767L41.2194 63.772L42.4713 64.8204L42.7938 65.0913L43.6433 65.802L44.0057 66.1041L44.813 66.7793L48.2487 69.6488L53.479 74.0198Z" fill="#020202"/>
<path d="M9.29512 40.649L5.75488 44.8779L9.29512 40.649Z" fill="#F2F2F1"/>
<path d="M53.4818 74.0197H52.5633L48.3982 70.5394L44.9292 67.641L44.0463 66.9036L43.8262 66.7192L42.8544 65.9063L42.0827 65.2623L40.7618 64.1584L40.7551 64.154L39.4854 63.0945L12.2976 40.378C12.1731 40.2736 12.0396 40.187 11.9018 40.116C11.8195 40.0715 11.735 40.036 11.6483 40.0049C10.9166 39.745 10.0783 39.9027 9.49121 40.4469C9.51345 40.4247 9.53569 40.4025 9.55792 40.3825C9.59128 40.3514 9.62686 40.3203 9.66466 40.2914C9.70024 40.2625 9.73582 40.2337 9.77585 40.2048C9.80476 40.1826 9.83367 40.1626 9.8648 40.1426C9.88482 40.1293 9.90706 40.116 9.92707 40.1004C9.93374 40.096 9.93819 40.0915 9.94486 40.0893C9.97154 40.0715 9.99823 40.056 10.0249 40.0404C10.0983 39.996 10.1739 39.9583 10.2517 39.9227C10.294 39.905 10.334 39.885 10.3763 39.8694C10.3963 39.8628 10.4163 39.8561 10.4341 39.8494C10.4986 39.825 10.5631 39.8028 10.6276 39.7828C10.6387 39.7784 10.652 39.7761 10.6654 39.7739C10.7054 39.7628 10.7432 39.7539 10.7832 39.745C10.8032 39.7384 10.8255 39.7339 10.8455 39.7317C11.1768 39.6651 11.5193 39.6562 11.8573 39.714C11.9329 39.7273 12.0085 39.7428 12.0841 39.7628C12.3488 39.8317 12.6045 39.9405 12.8447 40.0915C12.9469 40.1559 13.047 40.227 13.1426 40.3092L39.5187 62.3483L40.6351 63.2811L41.2266 63.7764L42.4786 64.8225L42.8055 65.0935L43.6549 65.8042L44.0174 66.1085L44.8246 66.7836L48.2604 69.6532L53.4884 74.0219L53.4818 74.0197Z" fill="#F2F2F1"/>
<path d="M9.30159 40.6424L9.29492 40.6512C9.34607 40.5913 9.39944 40.5357 9.45281 40.4802C9.39944 40.5313 9.34829 40.5846 9.30159 40.6424Z" fill="#020202"/>
<path d="M9.30159 40.6424L9.29492 40.6512C9.34607 40.5913 9.39944 40.5357 9.45281 40.4802C9.39944 40.5313 9.34829 40.5846 9.30159 40.6424Z" fill="url(#paint23_linear_462_1521)"/>
<path d="M52.5629 74.0198H40.6302L30.5365 65.5844C30.561 65.5533 30.5832 65.5199 30.6033 65.4844C30.6255 65.4511 30.6455 65.4156 30.6611 65.3822C30.67 65.3645 30.6789 65.3467 30.6878 65.3289C30.7033 65.2934 30.7189 65.2579 30.7322 65.2223C30.7522 65.1668 30.77 65.1113 30.7834 65.0558C30.8012 64.9802 30.8123 64.9047 30.819 64.8292C30.8234 64.7915 30.8234 64.7537 30.8234 64.7159C30.8234 64.2984 30.6455 63.8853 30.2986 63.5966L25.1128 59.2634C24.8148 59.0146 24.4301 58.8947 24.0431 58.928L22.7111 59.0457L5.75488 44.8779L9.29512 40.6491C9.29512 40.6491 9.29957 40.6446 9.30179 40.6424L9.3218 40.618C9.33292 40.6046 9.34404 40.5935 9.35739 40.5802C9.35739 40.5802 9.35738 40.578 9.35961 40.5758C9.36406 40.5691 9.3685 40.5647 9.37295 40.5602C9.38407 40.5491 9.39519 40.538 9.40631 40.5269C9.41298 40.5202 9.41965 40.5136 9.42632 40.5069C9.43522 40.498 9.44411 40.4869 9.45301 40.478C9.46413 40.4647 9.47747 40.4536 9.49081 40.4447C10.0801 39.9006 10.9162 39.7429 11.6479 40.0027C11.6923 40.0183 11.7346 40.0338 11.7768 40.0538C11.8191 40.0716 11.8613 40.0916 11.9014 40.1138C12.0392 40.1849 12.1727 40.2715 12.2972 40.3759L39.485 63.0924L40.7547 64.1518L40.7614 64.1562L42.0823 65.2601L42.854 65.9042L43.8258 66.7171L44.0459 66.9014L44.9288 67.6388L48.3978 70.5372L52.5629 74.0175V74.0198Z" fill="#F2F2F1"/>
<path d="M52.5629 74.0198H40.6302L30.5365 65.5844C30.561 65.5533 30.5832 65.5199 30.6033 65.4844C30.6255 65.4511 30.6455 65.4156 30.6611 65.3822C30.67 65.3645 30.6789 65.3467 30.6878 65.3289C30.7033 65.2934 30.7189 65.2579 30.7322 65.2223C30.7522 65.1668 30.77 65.1113 30.7834 65.0558C30.8012 64.9802 30.8123 64.9047 30.819 64.8292C30.8234 64.7915 30.8234 64.7537 30.8234 64.7159C30.8234 64.2984 30.6455 63.8853 30.2986 63.5966L25.1128 59.2634C24.8148 59.0146 24.4301 58.8947 24.0431 58.928L22.7111 59.0457L5.75488 44.8779L9.29512 40.6491C9.29512 40.6491 9.29957 40.6446 9.30179 40.6424L9.3218 40.618C9.33292 40.6046 9.34404 40.5935 9.35739 40.5802C9.35739 40.5802 9.35738 40.578 9.35961 40.5758C9.36406 40.5691 9.3685 40.5647 9.37295 40.5602C9.38407 40.5491 9.39519 40.538 9.40631 40.5269C9.41298 40.5202 9.41965 40.5136 9.42632 40.5069C9.43522 40.498 9.44411 40.4869 9.45301 40.478C9.46413 40.4647 9.47747 40.4536 9.49081 40.4447C10.0801 39.9006 10.9162 39.7429 11.6479 40.0027C11.6923 40.0183 11.7346 40.0338 11.7768 40.0538C11.8191 40.0716 11.8613 40.0916 11.9014 40.1138C12.0392 40.1849 12.1727 40.2715 12.2972 40.3759L39.485 63.0924L40.7547 64.1518L40.7614 64.1562L42.0823 65.2601L42.854 65.9042L43.8258 66.7171L44.0459 66.9014L44.9288 67.6388L48.3978 70.5372L52.5629 74.0175V74.0198Z" fill="url(#paint24_linear_462_1521)"/>
<path d="M3.24463 52.1161C2.72205 51.6785 2.40405 51.0855 2.30176 50.4614C2.40183 51.0878 2.7176 51.6808 3.24463 52.1183L21.0392 66.9858L3.24463 52.1161Z" fill="#2D2D2D"/>
<path d="M37.3326 74.0198H28.8067C28.0306 73.3934 27.121 73.0381 26.1915 72.9492C25.8868 72.9204 25.5777 72.9181 25.2753 72.9448C24.3191 73.0292 23.3873 73.3934 22.6135 74.0198H19.449L21.6128 71.4389L21.3526 69.4067L21.0413 66.988V66.9836L3.24446 52.1161C3.21333 52.0895 3.17997 52.0606 3.14884 52.0317C3.1177 52.0029 3.08657 51.974 3.05766 51.9429C2.73299 51.6164 2.50617 51.2255 2.38164 50.808C2.34828 50.6925 2.3216 50.577 2.30158 50.4615C2.29713 50.437 2.29269 50.4126 2.29046 50.386C2.28601 50.3615 2.28379 50.3371 2.27934 50.3127C2.2749 50.2638 2.27045 50.2172 2.26822 50.1683C2.26155 50.0462 2.26155 49.924 2.27267 49.8018C2.27267 49.7974 2.27267 49.793 2.27267 49.7885C2.27267 49.7841 2.27267 49.7796 2.27267 49.7752C2.27267 49.7596 2.27712 49.7463 2.27934 49.7308C2.28379 49.6841 2.29046 49.6375 2.29713 49.5908C2.29936 49.5753 2.30158 49.5575 2.3038 49.542C2.30825 49.5153 2.3127 49.4909 2.31937 49.4642C2.32604 49.4376 2.33049 49.4109 2.33716 49.3865C2.34606 49.351 2.35495 49.3154 2.36385 49.2799C2.38164 49.2177 2.40165 49.1555 2.42389 49.0956C2.46614 48.9801 2.51506 48.869 2.57288 48.7602C2.60846 48.6936 2.64627 48.6269 2.68852 48.5625C2.70186 48.5403 2.7152 48.5203 2.73077 48.4981C2.74633 48.4781 2.75968 48.4559 2.77524 48.4359C2.79526 48.4048 2.81972 48.3759 2.84196 48.3471C2.85308 48.3315 2.86419 48.3182 2.87754 48.3027C2.88421 48.296 2.89088 48.2893 2.89533 48.2804V48.276L4.39192 46.4948L37.3281 74.0153L37.3326 74.0198Z" fill="url(#paint25_linear_462_1521)"/>
<path d="M28.8065 74.0197H22.6133C23.3894 73.3934 24.3189 73.0292 25.2751 72.9448C25.5776 72.9181 25.8867 72.9181 26.1913 72.9492C27.1186 73.038 28.0304 73.3934 28.8065 74.0197Z" fill="#020202"/>
<path d="M57.0152 74.0197H53.4838L48.2535 69.6488L44.8178 66.7792L44.0106 66.104L43.6481 65.802L42.7986 65.0913L42.4762 64.8203L41.2242 63.772L40.6305 63.2767L39.5141 62.3439L13.138 40.3048C13.0735 40.2515 13.0091 40.2026 12.9423 40.156C12.8378 40.0804 12.7289 40.0183 12.6155 39.9605C12.5532 39.9294 12.4909 39.9028 12.4287 39.8761C12.3975 39.8628 12.3664 39.8517 12.3353 39.8384C12.1129 39.7562 11.8838 39.7051 11.6548 39.6829C11.4524 39.6629 11.2501 39.6673 11.0499 39.694C11.0344 39.6962 11.0166 39.6984 10.9988 39.7006C10.9788 39.7029 10.9565 39.7073 10.9343 39.7118C10.9054 39.7162 10.8742 39.7229 10.8431 39.7295C10.8209 39.734 10.7986 39.7384 10.7786 39.7451C10.7386 39.754 10.7008 39.7628 10.6608 39.7739C10.6496 39.7784 10.6363 39.7806 10.623 39.7828C10.6185 39.785 10.6141 39.785 10.6096 39.7873C10.6052 39.7873 10.6007 39.7873 10.5963 39.7917C10.5963 39.7917 10.594 39.7917 10.5896 39.7917C10.5852 39.7939 10.5785 39.7962 10.5718 39.7984C10.5229 39.8139 10.4762 39.8317 10.4273 39.8517C10.4095 39.8583 10.3895 39.865 10.3694 39.8717C10.3294 39.8894 10.2872 39.905 10.2449 39.925C10.1671 39.9605 10.0915 40.0005 10.0181 40.0427C9.99141 40.0582 9.96472 40.0738 9.93804 40.0915C9.93137 40.0938 9.92692 40.0982 9.92025 40.1027C9.89801 40.116 9.878 40.1293 9.85798 40.1449C9.82907 40.1648 9.79794 40.187 9.76903 40.207C9.73123 40.2337 9.69342 40.2626 9.65784 40.2937C9.62004 40.3225 9.58668 40.3536 9.5511 40.3847C9.51552 40.4158 9.48217 40.4469 9.44881 40.4824C9.40434 40.5269 9.35986 40.5713 9.31761 40.6201L9.29759 40.6446L9.29092 40.6535L5.74846 44.8801L22.7047 59.0501L24.0367 58.9302C24.4237 58.8969 24.8084 59.0168 25.1063 59.2655L30.2922 63.5987C30.6369 63.8875 30.817 64.3006 30.817 64.7181C30.817 64.7559 30.817 64.7936 30.8125 64.8314C30.8059 64.9091 30.7947 64.9847 30.777 65.058C30.7414 65.2068 30.6813 65.3533 30.5968 65.4866C30.5768 65.5199 30.5524 65.5532 30.5301 65.5865L40.6238 74.022H37.3282L4.39641 46.4992L2.90204 48.2804C2.89537 48.2893 2.8887 48.2982 2.88203 48.3049C2.86868 48.3204 2.85757 48.3337 2.84645 48.3493C2.82421 48.3781 2.79975 48.407 2.77973 48.4381C2.76417 48.4581 2.75082 48.4803 2.73526 48.5003C2.72192 48.5225 2.70857 48.5425 2.69301 48.5647C2.65075 48.6291 2.61295 48.6935 2.57737 48.7602C2.51955 48.869 2.47063 48.9823 2.42838 49.0955C2.40614 49.1555 2.38613 49.2177 2.36834 49.2799C2.35722 49.3154 2.34832 49.3509 2.34165 49.3865C2.33498 49.4109 2.32831 49.4376 2.32386 49.4642C2.31941 49.4909 2.31497 49.5175 2.31052 49.542C2.3083 49.5575 2.30607 49.5731 2.30385 49.5886C2.29718 49.6352 2.2905 49.6819 2.28606 49.7285C2.28606 49.7441 2.28161 49.7574 2.28161 49.7729C2.28161 49.7774 2.28161 49.7818 2.27939 49.7863C2.27939 49.7907 2.27939 49.7952 2.27939 49.7996C2.27049 49.9217 2.26827 50.0439 2.27494 50.1661C2.27716 50.2149 2.28161 50.2616 2.28606 50.3104C2.28828 50.3349 2.29273 50.3593 2.29495 50.3837C2.29718 50.4082 2.30162 50.4326 2.30607 50.4592C2.32386 50.5769 2.35055 50.6924 2.38613 50.8057C2.48175 51.1255 2.63519 51.432 2.85089 51.7052C2.89092 51.7563 2.93095 51.8052 2.97543 51.8518C3.00211 51.8829 3.03324 51.914 3.06215 51.9429C3.11997 52.0028 3.18446 52.0606 3.24895 52.1139L12.9379 60.2073L21.0413 66.9791L21.3526 69.3978L21.615 71.4278L19.4513 74.0109H16.4937L19.2423 70.7304L19.1066 69.6821L18.9087 68.1429L1.79016 53.8529C0.767225 52.9979 0.140122 51.7963 0.0200391 50.4703C-0.0978206 49.1444 0.306905 47.8495 1.16306 46.8279L3.48689 44.0538L3.86493 43.6007L4.35638 43.0166C4.29412 42.4281 4.4609 41.8195 4.8723 41.3331L7.68536 37.9727C8.18349 37.3775 8.92622 37.1043 9.6445 37.1731C9.96472 37.2042 10.2805 37.3042 10.5718 37.4752C10.9988 37.4063 11.4369 37.3886 11.8727 37.4308C12.8756 37.5263 13.8163 37.9194 14.5924 38.5657L39.7298 59.572L40.348 60.0873L41.2353 60.8291L41.2642 60.8514L42.1893 61.6243L42.2049 61.6376L42.9966 62.2994L43.0877 62.3772L44.0439 63.1768L44.5599 63.6076L45.5783 64.4583L45.8163 64.6559L47.9044 66.4017L51.7938 69.651L53.0969 70.7415L55.8277 73.0247L57.0152 74.0175V74.0197Z" fill="#020202"/>
<path d="M15.802 95.8456L18.0547 91.5413C19.9872 92.654 21.9663 93.1493 23.8988 93.1493C25.4087 93.1493 26.2026 92.7539 26.2026 92.1343C26.2026 90.3042 17.9613 91.368 17.9613 85.9998C17.9613 82.0664 21.2547 79.4945 26.7229 79.4945C29.2981 79.4945 31.6019 80.0142 33.2097 80.9781L31.1038 85.2314C29.7161 84.3652 28.0327 83.9454 26.3494 83.9454C24.666 83.9454 23.7987 84.514 23.7987 85.107C23.7987 87.0104 32.0644 85.8 32.0644 91.1415C32.0644 94.9994 28.6976 97.5958 23.3028 97.5958C20.2073 97.5913 17.4587 96.8495 15.7998 95.8389L15.802 95.8456Z" fill="white"/>
<path d="M44.5196 89.7867L48.9516 97.2027H42.3893L40.061 93.2693L38.6244 94.6041L38.1041 97.2005H32.5068L36.1716 78.8527H41.7688L40.0365 87.5302L44.4196 83.6723H51.3043L44.5196 89.7845V89.7867Z" fill="white"/>
<path d="M52.2914 83.6789L49.5918 97.2026H55.1646L57.8642 83.6789H52.2914ZM56.0807 76.9048C53.9259 76.9048 52.5138 78.2174 52.5138 79.9476C52.5138 81.4312 53.728 82.5906 55.6849 82.5928C57.8375 82.5928 59.2496 81.3068 59.2496 79.4523C59.2496 77.9687 58.0354 76.9048 56.0807 76.9048Z" fill="white"/>
<path d="M74.2515 88.0299C74.2515 88.5496 74.2025 89.1182 74.078 89.7356L72.5925 97.2005H66.9953L68.3563 90.3997C68.4052 90.1021 68.4563 89.8311 68.4563 89.5846C68.4563 88.6207 67.9849 88.1254 67.0442 88.1254C65.7811 88.1254 64.8894 88.9405 64.5425 90.6973L63.2349 97.2027H57.6377L60.3373 83.6789H65.6121L65.3408 85.0382C66.5305 83.9255 68.016 83.4302 69.4014 83.4302C72.2456 83.4302 74.2515 84.9627 74.2515 88.0299Z" fill="white"/>
<path d="M90.0916 79.8987H84.3476L73.3066 97.207H79.4731L81.2077 94.1887H87.8189L88.3838 97.2026H94.2034L90.0916 79.8987ZM83.6094 89.9843L86.16 85.5578L87.0006 89.9843H83.6094Z" fill="#1BE4FF"/>
<path d="M106.358 83.4302C104.897 83.4302 103.683 83.9499 102.691 84.9138L102.941 83.6789H97.6657L94.001 102H99.5982L100.859 95.7679C101.677 96.9806 103.063 97.4492 104.724 97.4492C108.611 97.4492 111.929 94.1399 111.929 89.689C111.929 85.6556 109.056 83.4302 106.358 83.4302ZM103.81 93.0516C102.549 93.0516 101.804 92.1854 101.804 90.9239C101.804 89.0449 102.796 87.8322 104.257 87.8322C105.52 87.8322 106.263 88.6984 106.263 89.96C106.263 91.8389 105.271 93.0516 103.81 93.0516Z" fill="#1BE4FF"/>
<path d="M128.198 89.3958C128.198 85.9088 125.647 83.4346 121.313 83.4346C116.267 83.4346 112.923 86.7439 112.923 91.197C112.923 95.0305 115.916 97.4536 120.372 97.4536C122.427 97.4536 124.433 97.0338 126.292 95.7723L123.964 92.383C123.097 93.0271 122.031 93.3225 121.017 93.3225C119.556 93.3225 118.665 92.8783 118.416 91.7412H127.898C128.069 91.0238 128.193 90.2309 128.198 89.3958ZM118.64 89.0448C119.012 88.0054 119.779 87.2392 121.066 87.2392C122.254 87.2392 123.072 87.9077 123.072 89.0448H118.64Z" fill="#1BE4FF"/>
</g>
<defs>
<linearGradient id="paint0_linear_462_1521" x1="33.5293" y1="37.1797" x2="50.7857" y2="37.1797" gradientUnits="userSpaceOnUse">
<stop stop-color="#9ABEF4"/>
<stop offset="0.18" stop-color="#89AAE6"/>
<stop offset="0.52" stop-color="#6E8CD1"/>
<stop offset="0.8" stop-color="#5E7AC4"/>
<stop offset="1" stop-color="#5873BF"/>
</linearGradient>
<linearGradient id="paint1_linear_462_1521" x1="51.3999" y1="31.6139" x2="71.4294" y2="31.6139" gradientUnits="userSpaceOnUse">
<stop stop-color="#5A75C1"/>
<stop offset="0.07" stop-color="#7190D3"/>
<stop offset="0.13" stop-color="#83A4E2"/>
<stop offset="0.21" stop-color="#90B3EC"/>
<stop offset="0.3" stop-color="#98BBF2"/>
<stop offset="0.44" stop-color="#9ABEF4"/>
<stop offset="0.63" stop-color="#98BCF2"/>
<stop offset="0.75" stop-color="#91B3ED"/>
<stop offset="0.84" stop-color="#84A5E3"/>
<stop offset="0.92" stop-color="#7392D5"/>
<stop offset="0.99" stop-color="#5D78C3"/>
<stop offset="1" stop-color="#5873BF"/>
</linearGradient>
<linearGradient id="paint2_linear_462_1521" x1="55.0803" y1="62.4638" x2="89.2907" y2="62.4638" gradientUnits="userSpaceOnUse">
<stop stop-color="#5A75C1"/>
<stop offset="0.07" stop-color="#7190D3"/>
<stop offset="0.13" stop-color="#83A4E2"/>
<stop offset="0.21" stop-color="#90B3EC"/>
<stop offset="0.3" stop-color="#98BBF2"/>
<stop offset="0.44" stop-color="#9ABEF4"/>
<stop offset="0.63" stop-color="#98BCF2"/>
<stop offset="0.75" stop-color="#91B3ED"/>
<stop offset="0.84" stop-color="#84A5E3"/>
<stop offset="0.92" stop-color="#7392D5"/>
<stop offset="0.99" stop-color="#5D78C3"/>
<stop offset="1" stop-color="#5873BF"/>
</linearGradient>
<linearGradient id="paint3_linear_462_1521" x1="58.1621" y1="43.483" x2="86.7264" y2="43.483" gradientUnits="userSpaceOnUse">
<stop stop-color="#5A75C1"/>
<stop offset="0.07" stop-color="#7190D3"/>
<stop offset="0.13" stop-color="#83A4E2"/>
<stop offset="0.21" stop-color="#90B3EC"/>
<stop offset="0.3" stop-color="#98BBF2"/>
<stop offset="0.44" stop-color="#9ABEF4"/>
<stop offset="0.63" stop-color="#98BCF2"/>
<stop offset="0.75" stop-color="#91B3ED"/>
<stop offset="0.84" stop-color="#84A5E3"/>
<stop offset="0.92" stop-color="#7392D5"/>
<stop offset="0.99" stop-color="#5D78C3"/>
<stop offset="1" stop-color="#5873BF"/>
</linearGradient>
<linearGradient id="paint4_linear_462_1521" x1="134.135" y1="54.7902" x2="137.245" y2="49.3987" gradientUnits="userSpaceOnUse">
<stop stop-color="#434254"/>
<stop offset="1" stop-color="#1E1D1D"/>
</linearGradient>
<linearGradient id="paint5_linear_462_1521" x1="122.125" y1="53.0844" x2="124.582" y2="48.8219" gradientUnits="userSpaceOnUse">
<stop stop-color="#434254"/>
<stop offset="1" stop-color="#1E1D1D"/>
</linearGradient>
<linearGradient id="paint6_linear_462_1521" x1="110.761" y1="65.773" x2="120.308" y2="49.2185" gradientUnits="userSpaceOnUse">
<stop stop-color="#434254"/>
<stop offset="1" stop-color="#1E1D1D"/>
</linearGradient>
<linearGradient id="paint7_linear_462_1521" x1="100.069" y1="65.7397" x2="102.853" y2="70.569" gradientUnits="userSpaceOnUse">
<stop stop-color="#434254"/>
<stop offset="1" stop-color="#1E1D1D"/>
</linearGradient>
<linearGradient id="paint8_linear_462_1521" x1="123.114" y1="67.6965" x2="133.589" y2="49.5307" gradientUnits="userSpaceOnUse">
<stop stop-color="#434254"/>
<stop offset="1" stop-color="#1E1D1D"/>
</linearGradient>
<linearGradient id="paint9_linear_462_1521" x1="118.791" y1="68.2206" x2="122.261" y2="62.2046" gradientUnits="userSpaceOnUse">
<stop stop-color="#434254"/>
<stop offset="1" stop-color="#1E1D1D"/>
</linearGradient>
<linearGradient id="paint10_linear_462_1521" x1="141.58" y1="52.1938" x2="141.602" y2="52.1539" gradientUnits="userSpaceOnUse">
<stop stop-color="#434254"/>
<stop offset="1" stop-color="#1E1D1D"/>
</linearGradient>
<linearGradient id="paint11_linear_462_1521" x1="130.451" y1="66.0041" x2="138.362" y2="52.2831" gradientUnits="userSpaceOnUse">
<stop stop-color="#434254"/>
<stop offset="1" stop-color="#1E1D1D"/>
</linearGradient>
<linearGradient id="paint12_linear_462_1521" x1="141.527" y1="52.4603" x2="141.549" y2="52.4225" gradientUnits="userSpaceOnUse">
<stop stop-color="#434254"/>
<stop offset="1" stop-color="#1E1D1D"/>
</linearGradient>
<linearGradient id="paint13_linear_462_1521" x1="141.474" y1="52.6424" x2="141.503" y2="52.5935" gradientUnits="userSpaceOnUse">
<stop stop-color="#434254"/>
<stop offset="1" stop-color="#1E1D1D"/>
</linearGradient>
<linearGradient id="paint14_linear_462_1521" x1="126.432" y1="66.426" x2="127.022" y2="65.4015" gradientUnits="userSpaceOnUse">
<stop stop-color="#434254"/>
<stop offset="1" stop-color="#1E1D1D"/>
</linearGradient>
<linearGradient id="paint15_linear_462_1521" x1="141.344" y1="52.9823" x2="141.371" y2="52.94" gradientUnits="userSpaceOnUse">
<stop stop-color="#434254"/>
<stop offset="1" stop-color="#1E1D1D"/>
</linearGradient>
<linearGradient id="paint16_linear_462_1521" x1="97.3367" y1="67.3033" x2="98.8105" y2="69.8613" gradientUnits="userSpaceOnUse">
<stop stop-color="#434254"/>
<stop offset="1" stop-color="#1E1D1D"/>
</linearGradient>
<linearGradient id="paint17_linear_462_1521" x1="110.959" y1="55.8918" x2="112.429" y2="58.4386" gradientUnits="userSpaceOnUse">
<stop stop-color="#434254"/>
<stop offset="1" stop-color="#1E1D1D"/>
</linearGradient>
<linearGradient id="paint18_linear_462_1521" x1="118.449" y1="51.3986" x2="118.524" y2="51.5298" gradientUnits="userSpaceOnUse">
<stop stop-color="#434254"/>
<stop offset="1" stop-color="#1E1D1D"/>
</linearGradient>
<linearGradient id="paint19_linear_462_1521" x1="119.425" y1="50.4814" x2="119.585" y2="50.757" gradientUnits="userSpaceOnUse">
<stop stop-color="#434254"/>
<stop offset="1" stop-color="#1E1D1D"/>
</linearGradient>
<linearGradient id="paint20_linear_462_1521" x1="121.906" y1="71.1123" x2="124.754" y2="76.0505" gradientUnits="userSpaceOnUse">
<stop stop-color="#434254"/>
<stop offset="1" stop-color="#1E1D1D"/>
</linearGradient>
<linearGradient id="paint21_linear_462_1521" x1="126.675" y1="73.0957" x2="127.641" y2="71.4223" gradientUnits="userSpaceOnUse">
<stop stop-color="#434254"/>
<stop offset="1" stop-color="#1E1D1D"/>
</linearGradient>
<linearGradient id="paint22_linear_462_1521" x1="108.849" y1="68.878" x2="111.062" y2="72.7116" gradientUnits="userSpaceOnUse">
<stop stop-color="#434254"/>
<stop offset="1" stop-color="#1E1D1D"/>
</linearGradient>
<linearGradient id="paint23_linear_462_1521" x1="9.40817" y1="40.6675" x2="70.1525" y2="91.5563" gradientUnits="userSpaceOnUse">
<stop stop-color="#F2A700"/>
<stop offset="0.44" stop-color="#FF006F"/>
<stop offset="1" stop-color="#2F34FF"/>
</linearGradient>
<linearGradient id="paint24_linear_462_1521" x1="5.75488" y1="56.9513" x2="73.6976" y2="56.9513" gradientUnits="userSpaceOnUse">
<stop stop-color="#F2A700"/>
<stop offset="0.44" stop-color="#FF006F"/>
<stop offset="1" stop-color="#2F34FF"/>
</linearGradient>
<linearGradient id="paint25_linear_462_1521" x1="2.266" y1="60.2584" x2="37.3326" y2="60.2584" gradientUnits="userSpaceOnUse">
<stop stop-color="#434254"/>
<stop offset="1" stop-color="#1E1D1D"/>
</linearGradient>
<clipPath id="clip0_462_1521">
<rect width="144" height="102" fill="white"/>
</clipPath>
</defs>
</svg>
