<svg width="114" height="112" viewBox="0 0 114 112" fill="none" xmlns="http://www.w3.org/2000/svg">
<path d="M93.8411 33.1955C93.6623 31.838 92.4997 30.8425 91.1583 30.8425H61.0207C60.3053 30.933 59.6793 31.3855 59.3216 32.019C55.2973 38.9878 55.2973 38.9878 58.6062 46.4091C59.2322 47.7666 61.0207 48.0381 61.7362 48.0381C65.7605 48.0381 75.9554 48.1286 75.9554 48.1286C75.8659 48.3096 75.7765 48.4906 75.6871 48.6716C75.0611 49.6672 74.3456 50.5722 73.4514 51.3867C68.7116 55.9119 62.8987 58.5365 56.1916 58.1745C48.4113 57.8125 42.7773 53.4683 39.2001 46.9521C35.4441 40.1643 29.1841 37.7207 22.6558 35.4581C21.4932 35.0056 20.2412 35.9106 20.1518 37.1777C19.794 46.9521 25.0703 60.3466 37.3221 68.0394C50.9153 76.7277 68.3539 75.5512 80.7845 65.3243C91.2477 56.6359 95.3614 42.9699 93.8411 33.1955ZM47.517 20.163C50.3787 18.9865 53.4193 17.991 56.4599 17.8099C64.0613 17.2669 70.1425 20.344 74.8822 26.4078C75.5976 27.3128 76.7602 27.5843 77.7439 27.2223L88.4754 23.0592C89.9063 22.5161 90.5323 20.8871 89.8168 19.5295C83.378 6.94953 70.0531 -0.833769 55.655 0.0712655C44.1187 0.614286 34.8181 5.50147 27.7532 14.5518C26.8589 15.7284 27.3955 17.4479 28.7369 17.9005C30.8832 18.715 32.9401 19.3485 34.8181 20.344C39.2001 22.6066 43.2244 21.9731 47.517 20.163ZM38.4847 26.4078C38.9318 26.5888 39.6472 25.9553 40.1838 25.6838L40.005 24.9597C35.2652 23.1497 30.5255 21.2491 25.7858 19.439C25.2492 19.258 24.4443 19.7105 23.8183 19.8915L23.9078 20.7966C28.7369 22.6971 33.6555 24.5977 38.4847 26.4078ZM21.2249 32.4715C25.9646 34.3721 30.7938 36.2727 35.6229 38.0827L36.1595 37.6302C35.8018 36.9967 35.6229 36.0917 35.0864 35.9106C30.4361 34.0101 25.6069 32.2 20.8672 30.3899L20.1518 30.8425C20.5989 31.476 20.7778 32.2905 21.2249 32.4715ZM23.6395 24.9597C27.7532 26.4983 31.9564 28.1273 36.0701 29.7564C37.3221 30.2994 37.9481 30.0279 37.9481 28.3989L23.1029 22.6971C22.0298 23.9642 22.298 24.5072 23.6395 24.9597ZM22.1192 28.5799C26.7695 30.4804 31.4198 32.2905 36.0701 34.0101L36.6067 33.5576C36.2489 33.0145 36.0701 32.019 35.5335 31.838C30.9726 30.0279 26.4118 28.3084 21.9403 26.4983L21.3143 26.7698C21.5826 27.4033 21.672 28.3989 22.1192 28.5799Z" fill="white"/>
<path d="M0.15332 102.458V102.397C0.15332 97.2009 4.21746 92.9346 9.80566 92.9346C13.1179 92.9346 15.1094 93.8242 17.0398 95.4418L14.4997 98.495C13.0773 97.3222 11.8174 96.6348 9.68373 96.6348C6.73723 96.6348 4.40035 99.2229 4.40035 102.337V102.397C4.40035 105.754 6.71691 108.2 9.96823 108.2C11.4313 108.2 12.7522 107.836 13.7885 107.109V104.5H9.72437V101.022H17.7104V108.969C15.8206 110.566 13.2195 111.88 9.8463 111.88C4.09554 111.88 0.15332 107.877 0.15332 102.458Z" fill="white"/>
<path d="M19.8643 102.458V102.397C19.8643 97.2009 23.9284 92.9346 29.5166 92.9346C32.8289 92.9346 34.8203 93.8242 36.7508 95.4418L34.2107 98.495C32.7882 97.3222 31.5283 96.6348 29.3947 96.6348C26.4482 96.6348 24.1113 99.2229 24.1113 102.337V102.397C24.1113 105.754 26.4278 108.2 29.6792 108.2C31.1422 108.2 32.4631 107.836 33.4994 107.109V104.5H29.4353V101.022H37.4213V108.969C35.5315 110.566 32.9305 111.88 29.5572 111.88C23.8065 111.88 19.8643 107.877 19.8643 102.458Z" fill="white"/>
<path d="M40.3477 93.2579H47.5209C53.3123 93.2579 57.2951 97.2008 57.2951 102.357V102.397C57.2951 107.553 53.2919 111.557 47.5209 111.557H40.3477V93.2579ZM44.3915 96.8773V107.917H47.5209C50.8331 107.917 53.0684 105.693 53.0684 102.458V102.397C53.0684 99.1621 50.8331 96.8773 47.5209 96.8773H44.3915Z" fill="white"/>
<path d="M59.9365 93.2579H68.3493C70.6862 93.2579 72.4947 93.905 73.714 95.1181C74.73 96.1291 75.299 97.5849 75.299 99.3036V99.3643C75.299 102.316 73.6936 104.177 71.3568 105.046L75.8476 111.577H71.0926L67.1504 105.713H63.9803V111.577H59.9365V93.2579ZM68.0851 102.134C70.0562 102.134 71.1942 101.083 71.1942 99.5462V99.4856C71.1942 97.7669 69.9749 96.8773 68.0038 96.8773H63.9803V102.134H68.0851Z" fill="white"/>
<path d="M77.1279 102.458V102.397C77.1279 97.2009 81.253 92.9346 86.9225 92.9346C92.592 92.9346 96.6764 97.1403 96.6764 102.357V102.397C96.6764 107.594 92.5513 111.86 86.8819 111.86C81.2124 111.86 77.1279 107.655 77.1279 102.458ZM92.4497 102.458V102.397C92.4497 99.2633 90.1332 96.6348 86.8819 96.6348C83.6306 96.6348 81.3546 99.2027 81.3546 102.337V102.397C81.3546 105.531 83.6712 108.16 86.9225 108.16C90.1738 108.16 92.4497 105.592 92.4497 102.458Z" fill="white"/>
<path d="M99.2979 93.2579H106.817C111.206 93.2579 113.868 95.8461 113.868 99.5867V99.6473C113.868 103.893 110.556 106.077 106.43 106.077H103.362V111.577H99.3182V93.2579H99.2979ZM106.552 102.478C108.584 102.478 109.763 101.265 109.763 99.708V99.6473C109.763 97.8478 108.503 96.8773 106.471 96.8773H103.342V102.478H106.552Z" fill="white"/>
</svg>
